<?xml version="1.0" standalone="no"?>
<!DOCTYPE svg PUBLIC "-//W3C//DTD SVG 20010904//EN"
 "http://www.w3.org/TR/2001/REC-SVG-20010904/DTD/svg10.dtd">
<svg version="1.0" xmlns="http://www.w3.org/2000/svg"
 width="360.000000pt" height="360.000000pt" viewBox="0 0 360.000000 360.000000"
 preserveAspectRatio="xMidYMid meet">

<g transform="translate(0.000000,360.000000) scale(0.100000,-0.100000)"
fill="#000000" stroke="none">
<path d="M2825 3092 c-5 -4 -77 -143 -160 -309 -96 -193 -155 -303 -165 -303
-12 0 -12 -2 -2 -9 10 -6 -1 -37 -47 -136 -34 -70 -61 -131 -61 -135 0 -4 7
-13 15 -20 24 -20 18 -33 -12 -27 -25 5 -30 1 -50 -41 -13 -26 -27 -58 -33
-72 -5 -14 -14 -32 -19 -40 -9 -16 -91 -193 -135 -292 -25 -56 -26 -57 -58
-51 -85 16 -211 58 -294 98 -201 97 -330 239 -374 410 -33 127 -21 265 31 367
57 111 179 188 299 188 133 0 262 -89 295 -204 44 -152 0 -319 -110 -413 -51
-44 -52 -64 -4 -88 69 -36 140 -1 208 102 141 212 60 479 -179 596 -36 17 -67
34 -70 37 -3 3 -46 7 -96 9 -263 10 -437 -149 -451 -414 -15 -256 131 -472
412 -613 63 -31 272 -102 302 -102 53 -1 44 -26 -177 -485 -142 -295 -284
-447 -463 -495 -73 -19 -173 -9 -236 25 -70 39 -146 121 -183 201 -26 57 -32
82 -36 167 -5 95 9 216 28 246 7 12 19 9 72 -14 75 -34 175 -44 246 -24 62 17
148 100 158 153 19 105 -38 182 -153 206 -62 14 -138 1 -189 -31 -43 -26 -120
-112 -145 -161 l-20 -39 -72 59 c-176 143 -259 183 -386 183 -129 0 -229 -42
-318 -133 -117 -119 -125 -333 -18 -447 38 -40 49 -46 84 -46 63 0 69 14 38
87 -57 134 -57 228 -1 339 69 137 235 189 383 119 69 -33 267 -185 264 -204 0
-6 -11 -47 -22 -90 -54 -206 -2 -409 138 -538 146 -134 323 -154 521 -61 59
28 93 54 161 122 96 97 167 207 254 397 29 64 58 121 64 127 6 6 11 16 11 22
0 7 29 74 65 151 57 123 68 139 87 136 172 -19 293 -31 296 -27 3 2 2 10 -1
17 -3 10 -48 18 -148 27 -79 7 -146 15 -148 17 -2 2 24 64 58 136 34 73 61
136 61 141 0 4 -10 7 -21 7 -17 0 -19 3 -10 14 19 23 64 30 77 11 10 -14 12
-14 18 0 7 18 67 20 99 4 31 -16 76 -62 77 -76 0 -7 4 -13 9 -13 11 0 41 -73
41 -98 0 -10 13 -28 30 -40 36 -27 58 -95 67 -205 l6 -77 23 57 c13 32 24 70
24 84 0 15 8 45 18 68 18 38 20 40 28 20 9 -19 10 -17 10 15 0 30 -3 35 -17
31 -13 -4 -23 3 -34 26 -14 27 -15 31 -2 26 15 -6 27 67 48 293 4 52 11 119
15 149 5 41 4 52 -5 46 -7 -4 -23 3 -37 16 l-24 22 0 -25 c0 -46 -51 -63 -67
-23 -7 21 17 67 33 61 6 -2 22 2 34 11 13 9 32 13 50 10 27 -6 28 -4 35 42 3
26 8 63 10 82 2 19 8 77 14 129 15 146 24 285 24 394 0 85 -3 101 -18 113 -20
14 -54 17 -70 5z m38 -191 c-2 -13 3 -21 12 -21 8 0 15 -7 15 -15 0 -8 -8 -15
-19 -15 -12 0 -18 -7 -17 -17 0 -10 -5 -18 -13 -18 -21 0 -24 21 -5 39 19 19
12 30 -19 31 -12 0 -23 7 -25 18 -2 10 3 17 12 17 9 0 16 -4 16 -10 0 -5 5
-10 10 -10 6 0 10 7 10 16 0 9 6 14 13 11 6 -2 11 -14 10 -26z m-43 -40 c0
-13 -26 -32 -33 -24 -14 13 -6 33 13 33 11 0 20 -4 20 -9z m-90 -246 c-24
-189 -23 -178 -6 -172 20 8 36 -13 36 -47 l1 -31 20 28 c22 29 50 35 68 13 17
-20 4 -42 -32 -57 -23 -10 -32 -10 -35 -1 -2 7 -16 12 -31 12 -15 0 -32 5 -39
12 -9 9 -12 9 -12 0 0 -7 7 -15 15 -18 21 -8 19 -39 -4 -55 -16 -12 -22 -42
-40 -198 -14 -129 -25 -189 -35 -199 -14 -14 -17 -12 -28 14 -7 16 -13 66 -13
111 0 92 -4 98 -14 22 l-6 -53 -35 57 c-19 31 -40 57 -46 57 -6 0 -18 8 -27
18 -14 16 -11 26 39 131 30 62 54 114 54 116 0 1 31 67 68 146 38 79 79 170
92 201 13 32 25 56 26 55 2 -2 -5 -75 -16 -162z m-245 -375 c-4 -11 -11 -18
-16 -15 -11 7 -12 48 -2 59 11 11 25 -23 18 -44z m235 -146 c0 -14 -6 -24 -14
-24 -18 0 -28 27 -20 52 8 26 34 5 34 -28z m-220 -20 c39 -42 104 -163 94
-174 -3 -2 -8 1 -12 7 -4 6 -25 22 -46 37 -31 21 -51 26 -97 26 -34 0 -59 4
-59 10 0 18 60 140 69 140 5 0 27 -21 51 -46z m275 -124 c-4 -11 -11 -20 -16
-20 -16 0 -21 27 -9 51 11 20 13 20 22 5 5 -9 6 -25 3 -36z m-134 -103 c-8 -8
-11 -5 -11 9 0 27 14 41 18 19 2 -9 -1 -22 -7 -28z m159 -167 c0 -11 -4 -20
-9 -20 -5 0 -7 9 -4 20 3 11 7 20 9 20 2 0 4 -9 4 -20z m-1419 -136 c24 -23
29 -35 25 -56 -3 -15 0 -28 6 -30 7 -3 8 -17 4 -43 -6 -29 -20 -52 -52 -82
-76 -73 -163 -81 -279 -24 l-65 32 24 47 c32 62 78 119 124 152 46 35 64 39
130 36 42 -2 58 -8 83 -32z"/>
<path d="M2630 2439 c0 -5 5 -7 10 -4 6 3 10 8 10 11 0 2 -4 4 -10 4 -5 0 -10
-5 -10 -11z"/>
<path d="M2580 2180 c0 -5 5 -10 10 -10 6 0 10 5 10 10 0 6 -4 10 -10 10 -5 0
-10 -4 -10 -10z"/>
<path d="M2586 2138 c7 -12 44 -10 44 2 0 5 -11 9 -24 8 -14 -1 -22 -6 -20
-10z"/>
<path d="M2462 2038 c6 -18 28 -21 28 -4 0 9 -7 16 -16 16 -9 0 -14 -5 -12
-12z"/>
<path d="M1190 1290 c0 -5 5 -10 10 -10 6 0 10 5 10 10 0 6 -4 10 -10 10 -5 0
-10 -4 -10 -10z"/>
<path d="M2620 2950 c0 -5 5 -10 11 -10 5 0 7 5 4 10 -3 6 -8 10 -11 10 -2 0
-4 -4 -4 -10z"/>
<path d="M2127 2884 c-9 -10 2 -24 19 -24 8 0 14 7 14 15 0 15 -21 21 -33 9z"/>
<path d="M2976 2813 c-6 -14 -5 -15 5 -6 7 7 10 15 7 18 -3 3 -9 -2 -12 -12z"/>
<path d="M2580 2729 c0 -5 5 -7 10 -4 6 3 10 8 10 11 0 2 -4 4 -10 4 -5 0 -10
-5 -10 -11z"/>
<path d="M2960 2710 c-9 -6 -10 -10 -3 -10 6 0 15 5 18 10 8 12 4 12 -15 0z"/>
<path d="M3195 2400 c3 -5 8 -10 11 -10 2 0 4 5 4 10 0 6 -5 10 -11 10 -5 0
-7 -4 -4 -10z"/>
<path d="M1930 2356 c0 -9 7 -16 16 -16 17 0 14 22 -4 28 -7 2 -12 -3 -12 -12z"/>
<path d="M1940 2284 c0 -8 5 -12 10 -9 6 3 10 10 10 16 0 5 -4 9 -10 9 -5 0
-10 -7 -10 -16z"/>
<path d="M1190 2275 c0 -8 7 -15 15 -15 8 0 15 7 15 15 0 8 -7 15 -15 15 -8 0
-15 -7 -15 -15z"/>
<path d="M2860 2270 c0 -5 5 -10 11 -10 5 0 7 5 4 10 -3 6 -8 10 -11 10 -2 0
-4 -4 -4 -10z"/>
<path d="M3126 2257 c3 -10 9 -15 12 -12 3 3 0 11 -7 18 -10 9 -11 8 -5 -6z"/>
<path d="M1670 2120 c0 -5 5 -10 11 -10 5 0 7 5 4 10 -3 6 -8 10 -11 10 -2 0
-4 -4 -4 -10z"/>
<path d="M1085 2070 c3 -5 8 -10 11 -10 2 0 4 5 4 10 0 6 -5 10 -11 10 -5 0
-7 -4 -4 -10z"/>
<path d="M3450 2060 c0 -5 7 -10 16 -10 8 0 12 5 9 10 -3 6 -10 10 -16 10 -5
0 -9 -4 -9 -10z"/>
<path d="M2460 1900 c0 -11 2 -20 5 -20 2 0 9 9 15 20 9 16 8 20 -5 20 -8 0
-15 -9 -15 -20z"/>
<path d="M3167 1900 c-9 -11 -13 -20 -7 -20 5 0 14 9 20 20 6 11 9 20 8 20 -2
0 -11 -9 -21 -20z"/>
<path d="M940 1899 c0 -5 5 -7 10 -4 6 3 10 8 10 11 0 2 -4 4 -10 4 -5 0 -10
-5 -10 -11z"/>
<path d="M2950 1882 c0 -7 5 -12 11 -12 6 0 8 -7 4 -17 -5 -15 -4 -16 6 -5 11
10 10 15 -4 29 -11 11 -17 13 -17 5z"/>
<path d="M3140 1846 c0 -24 -68 -125 -109 -161 l-22 -19 6 29 c4 17 8 36 11
42 2 7 -1 23 -6 35 -8 21 -8 21 -8 -7 1 -16 -2 -49 -7 -72 -6 -34 -5 -43 6
-43 8 0 19 8 26 19 6 10 26 21 45 25 26 6 29 9 15 15 -17 6 -17 8 3 34 12 16
32 48 45 72 17 35 19 45 8 49 -8 4 -13 -3 -13 -18z"/>
<path d="M2320 1840 c0 -5 5 -10 10 -10 6 0 10 5 10 10 0 6 -4 10 -10 10 -5 0
-10 -4 -10 -10z"/>
<path d="M2980 1830 c0 -5 5 -10 10 -10 6 0 10 5 10 10 0 6 -4 10 -10 10 -5 0
-10 -4 -10 -10z"/>
<path d="M3241 1830 c-8 -4 -20 -6 -28 -3 -7 3 -13 0 -13 -6 0 -14 47 -14 55
0 10 15 2 20 -14 9z"/>
<path d="M2075 1810 c-3 -5 -1 -10 4 -10 6 0 11 5 11 10 0 6 -2 10 -4 10 -3 0
-8 -4 -11 -10z"/>
<path d="M2560 1801 c0 -5 5 -13 10 -16 6 -3 10 -2 10 4 0 5 -4 13 -10 16 -5
3 -10 2 -10 -4z"/>
<path d="M2940 1790 c0 -13 18 -22 24 -11 3 5 -1 11 -9 15 -8 3 -15 1 -15 -4z"/>
<path d="M2540 1766 c0 -2 9 -6 20 -9 11 -3 18 -1 14 4 -5 9 -34 13 -34 5z"/>
<path d="M2965 1760 c-3 -5 -1 -10 4 -10 6 0 11 5 11 10 0 6 -2 10 -4 10 -3 0
-8 -4 -11 -10z"/>
<path d="M2421 1737 c0 -10 -5 -16 -9 -13 -4 2 -9 -4 -9 -15 -2 -22 1 -23 26
-7 15 9 26 8 52 -5 21 -10 38 -12 43 -7 5 5 7 12 5 15 -6 6 -46 13 -76 14 -12
1 -24 9 -26 19 -4 16 -5 16 -6 -1z"/>
<path d="M3163 1729 c-9 -9 -8 -15 3 -27 19 -19 30 -8 18 18 -7 16 -12 18 -21
9z"/>
<path d="M3480 1705 c0 -8 5 -15 10 -15 6 0 10 7 10 15 0 8 -4 15 -10 15 -5 0
-10 -7 -10 -15z"/>
<path d="M1765 1660 c3 -5 8 -10 11 -10 2 0 4 5 4 10 0 6 -5 10 -11 10 -5 0
-7 -4 -4 -10z"/>
<path d="M3028 1630 c35 -15 102 -22 102 -10 0 6 -17 10 -37 10 -21 0 -49 3
-63 5 l-25 6 23 -11z"/>
<path d="M3145 1620 c3 -5 11 -10 16 -10 6 0 7 5 4 10 -3 6 -11 10 -16 10 -6
0 -7 -4 -4 -10z"/>
<path d="M3080 1560 c0 -5 5 -10 11 -10 5 0 7 5 4 10 -3 6 -8 10 -11 10 -2 0
-4 -4 -4 -10z"/>
<path d="M2992 1530 c-19 -30 -15 -37 25 -45 20 -3 63 -20 95 -36 67 -34 64
-33 72 -14 4 10 -7 21 -34 35 -23 12 -40 28 -40 38 0 14 -2 15 -9 2 -6 -8 -7
-18 -4 -24 4 -5 -1 -7 -11 -3 -10 4 -20 7 -22 7 -3 0 -2 5 1 10 3 6 -6 15 -22
21 l-28 12 25 7 c24 8 24 8 -5 9 -20 1 -34 -6 -43 -19z"/>
<path d="M1610 1510 c0 -5 5 -10 10 -10 6 0 10 5 10 10 0 6 -4 10 -10 10 -5 0
-10 -4 -10 -10z"/>
<path d="M2981 1468 c-1 -12 -9 -18 -25 -18 -14 0 -27 -3 -29 -7 -3 -5 14 -8
38 -8 24 0 40 2 35 5 -4 3 -10 14 -13 25 -4 16 -5 17 -6 3z"/>
<path d="M2596 1425 c-6 -16 14 -30 34 -23 7 2 4 11 -8 21 -17 16 -20 16 -26
2z"/>
<path d="M2715 1410 c-8 -13 4 -32 16 -25 12 8 12 35 0 35 -6 0 -13 -4 -16
-10z"/>
<path d="M2660 1390 c0 -5 5 -10 10 -10 6 0 10 5 10 10 0 6 -4 10 -10 10 -5 0
-10 -4 -10 -10z"/>
<path d="M3257 1382 c-20 -22 -6 -42 28 -42 31 0 54 -30 53 -70 0 -19 8 -55
18 -80 27 -67 25 -216 -5 -292 -24 -62 -92 -145 -147 -178 -44 -28 -126 -50
-185 -50 -172 0 -285 153 -290 395 -1 39 -3 61 -6 50 -16 -75 -61 -113 -111
-94 -24 9 -25 9 -19 -35 7 -52 47 -145 85 -200 40 -59 133 -123 214 -147 103
-32 229 -25 320 18 128 60 206 164 227 302 20 123 -21 276 -96 361 -17 19 -32
44 -34 55 -6 26 -31 30 -52 7z"/>
<path d="M2690 1320 c0 -5 5 -10 10 -10 6 0 10 5 10 10 0 6 -4 10 -10 10 -5 0
-10 -4 -10 -10z"/>
<path d="M2613 1302 c-24 -11 -33 -22 -33 -40 0 -22 2 -22 35 14 19 20 34 38
33 39 -2 2 -18 -4 -35 -13z"/>
<path d="M2730 1266 c0 -31 6 -34 13 -6 3 11 1 23 -4 26 -5 3 -9 -6 -9 -20z"/>
<path d="M1590 1240 c0 -5 5 -10 10 -10 6 0 10 5 10 10 0 6 -4 10 -10 10 -5 0
-10 -4 -10 -10z"/>
<path d="M1757 1164 c-8 -8 1 -24 14 -24 5 0 9 7 9 15 0 15 -12 20 -23 9z"/>
<path d="M2260 1090 c0 -5 5 -10 10 -10 6 0 10 5 10 10 0 6 -4 10 -10 10 -5 0
-10 -4 -10 -10z"/>
<path d="M1575 1070 c-3 -5 -1 -10 4 -10 6 0 11 5 11 10 0 6 -2 10 -4 10 -3 0
-8 -4 -11 -10z"/>
<path d="M3060 945 c0 -8 5 -15 10 -15 6 0 10 7 10 15 0 8 -4 15 -10 15 -5 0
-10 -7 -10 -15z"/>
<path d="M1180 940 c0 -5 5 -10 10 -10 6 0 10 5 10 10 0 6 -4 10 -10 10 -5 0
-10 -4 -10 -10z"/>
<path d="M2080 930 c0 -5 5 -10 10 -10 6 0 10 5 10 10 0 6 -4 10 -10 10 -5 0
-10 -4 -10 -10z"/>
<path d="M1880 794 c0 -8 5 -12 10 -9 6 4 8 11 5 16 -9 14 -15 11 -15 -7z"/>
<path d="M2750 540 c0 -19 11 -26 23 -14 8 8 -3 34 -14 34 -5 0 -9 -9 -9 -20z"/>
<path d="M2510 520 c0 -5 5 -10 10 -10 6 0 10 5 10 10 0 6 -4 10 -10 10 -5 0
-10 -4 -10 -10z"/>
</g>
</svg>
