<svg xmlns="http://www.w3.org/2000/svg" xmlns:xlink="http://www.w3.org/1999/xlink" version="1.1" width="1000" height="1000" viewBox="0 0 1000 1000" xml:space="preserve">
<desc>Created with Fabric.js 3.5.0</desc>
<defs>
</defs>
<rect x="0" y="0" width="100%" height="100%" fill="#000000"/>
<g transform="matrix(4.4563 0 0 4.4563 499.9971 499.9971)" id="592953">
<g style="" vector-effect="non-scaling-stroke">
		<g transform="matrix(1 0 0 1 0 0)">
<linearGradient id="SVGID_22" gradientUnits="userSpaceOnUse" gradientTransform="matrix(1 0 0 1 0 0)" x1="-12.4348" y1="91.2145" x2="228.124" y2="92.098">
<stop offset="0%" style="stop-color:rgb(170,54,124);stop-opacity: 1"/>
<stop offset="100%" style="stop-color:rgb(74,47,189);stop-opacity: 1"/>
</linearGradient>
<path style="stroke: none; stroke-width: 1; stroke-dasharray: none; stroke-linecap: butt; stroke-dashoffset: 0; stroke-linejoin: miter; stroke-miterlimit: 4; is-custom-font: none; font-file-url: none; fill: url(#SVGID_22); fill-rule: nonzero; opacity: 1;" transform=" translate(-102, -102)" d="M 187.639 69.9021 C 193.092 67.8586 199.226 70.6143 200.696 76.2484 C 206.238 97.4863 204.802 120.051 196.436 140.546 C 186.737 164.31 168.435 183.543 145.182 194.409 C 121.928 205.275 95.4333 206.975 70.9821 199.169 C 46.5309 191.364 25.9211 174.628 13.2642 152.299 C 0.607328 129.97 -3.16618 103.69 2.6965 78.7016 C 8.55918 53.7134 23.627 31.854 44.8941 17.4842 C 66.1612 3.11439 92.0641 -2.7094 117.435 1.17464 C 139.317 4.52444 159.415 14.8827 174.791 30.5466 C 178.869 34.702 178.083 41.3805 173.529 45.009 C 168.975 48.6374 162.385 47.8272 158.195 43.7832 C 146.212 32.2155 130.877 24.5642 114.244 22.0179 C 94.1181 18.9368 73.5701 23.5566 56.6994 34.9558 C 39.8288 46.355 27.8758 63.6955 23.2251 83.518 C 18.5744 103.34 21.5679 124.188 31.6082 141.901 C 41.6486 159.614 57.9979 172.89 77.3943 179.082 C 96.7908 185.274 117.809 183.925 136.255 175.305 C 154.701 166.686 169.219 151.429 176.914 132.578 C 183.273 116.999 184.584 99.9117 180.815 83.688 C 179.497 78.0164 182.187 71.9457 187.639 69.9021 Z" stroke-linecap="round"/>
</g>
		<g transform="matrix(1 0 0 1 -0.3795 0.652)">
<path style="stroke: none; stroke-width: 1; stroke-dasharray: none; stroke-linecap: butt; stroke-dashoffset: 0; stroke-linejoin: miter; stroke-miterlimit: 4; is-custom-font: none; font-file-url: none; fill: rgb(255,255,255); fill-rule: nonzero; opacity: 1;" transform=" translate(-101.6205, -102.652)" d="M 66.08 99.16 C 66.08 103.804 69.32 107.512 74.036 107.512 C 74.648 107.512 75.08 107.44 75.332 107.296 L 69.896 115 H 77.528 L 83.072 106.18 C 84.476 103.912 85.376 101.32 85.376 98.98 C 85.376 93.724 81.308 89.8 75.728 89.8 C 70.256 89.8 66.08 93.76 66.08 99.16 Z M 72.416 98.908 C 72.416 97.072 73.892 95.668 75.764 95.668 C 77.636 95.668 79.076 97.108 79.076 98.944 C 79.076 100.78 77.636 102.184 75.764 102.184 C 73.892 102.184 72.416 100.744 72.416 98.908 Z M 94.3971 104.92 C 94.9371 104.056 95.9811 103.372 97.3131 103.372 C 99.1491 103.372 100.481 104.668 100.481 106.432 C 100.481 108.196 99.1491 109.6 97.3131 109.6 C 95.4051 109.6 94.3611 108.34 94.2531 107.224 H 87.9171 C 88.0251 112.228 91.6971 115.504 97.4211 115.504 C 102.785 115.504 106.889 111.508 106.889 106.108 C 106.889 101.644 103.685 97.936 98.9691 97.936 C 97.4211 97.936 96.0531 98.332 94.8651 99.088 L 95.3331 95.92 H 105.161 V 90.304 H 90.3651 L 88.5291 103.696 L 94.3971 104.92 Z M 121.357 96.028 C 121.357 92.608 118.585 89.944 115.021 89.944 C 111.457 89.944 108.685 92.608 108.685 96.028 C 108.685 99.448 111.457 102.112 115.021 102.112 C 118.585 102.112 121.357 99.448 121.357 96.028 Z M 117.109 96.028 C 117.109 97.288 116.209 98.152 115.021 98.152 C 113.833 98.152 112.933 97.288 112.933 96.028 C 112.933 94.768 113.833 93.904 115.021 93.904 C 116.209 93.904 117.109 94.768 117.109 96.028 Z M 134.857 90.268 H 129.349 L 110.989 115 H 116.497 L 134.857 90.268 Z M 124.489 109.24 C 124.489 112.66 127.261 115.324 130.825 115.324 C 134.389 115.324 137.161 112.66 137.161 109.24 C 137.161 105.82 134.389 103.156 130.825 103.156 C 127.261 103.156 124.489 105.82 124.489 109.24 Z M 128.737 109.24 C 128.737 107.98 129.637 107.116 130.825 107.116 C 132.013 107.116 132.913 107.98 132.913 109.24 C 132.913 110.5 132.013 111.364 130.825 111.364 C 129.637 111.364 128.737 110.5 128.737 109.24 Z" stroke-linecap="round"/>
</g>
</g>
</g>
<g transform="matrix(1 0 0 1 500 500)" id="992723">
<path style="stroke: none; stroke-width: 1; stroke-dasharray: none; stroke-linecap: butt; stroke-dashoffset: 0; stroke-linejoin: miter; stroke-miterlimit: 4; is-custom-font: none; font-file-url: none; fill: rgb(0,0,0); fill-rule: nonzero; opacity: 1;" vector-effect="non-scaling-stroke" transform=" translate(-7.9951, -7.9947)" d="M 13.62 7.82 c 0.34 -0.33 0.46 -0.82 0.31 -1.27 c -0.15 -0.45 -0.53 -0.77 -1 -0.84 l -2.52 -0.37 c -0.08 -0.01 -0.14 -0.06 -0.18 -0.13 L 9.11 2.92 C 8.9 2.5 8.47 2.23 8 2.23 S 7.1 2.5 6.89 2.92 L 5.76 5.21 c -0.04 0.07 -0.1 0.12 -0.18 0.13 L 3.06 5.71 c -0.47 0.07 -0.85 0.39 -1 0.84 C 1.91 7 2.03 7.49 2.38 7.82 L 4.2 9.59 c 0.06 0.06 0.08 0.13 0.07 0.21 l -0.43 2.51 c -0.08 0.47 0.11 0.93 0.49 1.21 c 0.38 0.28 0.88 0.32 1.3 0.09 l 2.26 -1.19 c 0.07 -0.04 0.15 -0.04 0.22 0 l 2.25 1.19 c 0.18 0.1 0.38 0.14 0.58 0.14 c 0.26 0 0.51 -0.08 0.73 -0.24 c 0.38 -0.28 0.57 -0.74 0.49 -1.21 l -0.43 -2.51 c -0.01 -0.08 0.01 -0.16 0.07 -0.21 L 13.62 7.82 z M 11.1 8.88 c -0.29 0.29 -0.42 0.69 -0.36 1.1 l 0.43 2.51 c 0.02 0.13 -0.06 0.21 -0.09 0.23 c -0.04 0.03 -0.13 0.08 -0.25 0.02 l -2.25 -1.19 C 8.4 11.46 8.2 11.41 8 11.41 s -0.4 0.05 -0.58 0.14 l -2.25 1.19 c -0.12 0.07 -0.21 0.01 -0.25 -0.02 c -0.04 -0.03 -0.12 -0.1 -0.09 -0.23 l 0.43 -2.51 c 0.07 -0.4 -0.06 -0.81 -0.36 -1.1 L 3.07 7.1 C 2.98 7.01 3 6.9 3.01 6.86 c 0.01 -0.04 0.06 -0.14 0.19 -0.16 l 2.52 -0.37 c 0.4 -0.06 0.75 -0.31 0.93 -0.68 l 1.13 -2.28 C 7.85 3.25 7.96 3.23 8 3.23 s 0.15 0.01 0.21 0.13 l 1.13 2.28 c 0.18 0.37 0.53 0.62 0.93 0.68 l 2.52 0.37 c 0.13 0.02 0.18 0.12 0.19 0.16 C 13 6.9 13.02 7.01 12.93 7.1 L 11.1 8.88 z" stroke-linecap="round"/>
</g>
<g transform="matrix(1.1321 0 0 1 504.6631 500)" id="6636">
<g style="" vector-effect="non-scaling-stroke">
		<g transform="matrix(1 0 0 1 0 0)" id="Layer_1">
<path style="stroke: none; stroke-width: 1; stroke-dasharray: none; stroke-linecap: butt; stroke-dashoffset: 0; stroke-linejoin: miter; stroke-miterlimit: 4; is-custom-font: none; font-file-url: none; fill: rgb(0,0,0); fill-rule: nonzero; opacity: 1;" transform=" translate(-256, -256)" d="M 256 48 C 141.1 48 48 141.1 48 256 s 93.1 208 208 208 c 114.9 0 208 -93.1 208 -208 S 370.9 48 256 48 z M 256 446.7 c -105.1 0 -190.7 -85.5 -190.7 -190.7 c 0 -105.1 85.5 -190.7 190.7 -190.7 c 105.1 0 190.7 85.5 190.7 190.7 C 446.7 361.1 361.1 446.7 256 446.7 z" stroke-linecap="round"/>
</g>
		<g transform="matrix(1 0 0 1 0 0)" id="Layer_1">
<path style="stroke: none; stroke-width: 1; stroke-dasharray: none; stroke-linecap: butt; stroke-dashoffset: 0; stroke-linejoin: miter; stroke-miterlimit: 4; is-custom-font: none; font-file-url: none; fill: rgb(0,0,0); fill-rule: nonzero; opacity: 1;" transform=" translate(-256, -256)" d="M 256 96 c -88.4 0 -160 71.6 -160 160 c 0 88.4 71.6 160 160 160 c 88.4 0 160 -71.6 160 -160 C 416 167.6 344.4 96 256 96 z" stroke-linecap="round"/>
</g>
</g>
</g>
<g transform="matrix(0 4.0905 -4.0905 0 500.0022 499.9979)" id="556038">
<g style="" vector-effect="non-scaling-stroke">
		<g transform="matrix(1 0 0 1 5.0055 0.2485)" id="Layer_1">
<path style="stroke: none; stroke-width: 1; stroke-dasharray: none; stroke-linecap: butt; stroke-dashoffset: 0; stroke-linejoin: miter; stroke-miterlimit: 4; is-custom-font: none; font-file-url: none; fill: rgb(69,75,83); fill-rule: nonzero; opacity: 1;" transform=" translate(-50.5055, -45.7485)" d="M 58.633 80.405 H 42.377 c -1.387 0 -2.512 -1.125 -2.512 -2.513 V 13.605 c 0 -1.388 1.125 -2.513 2.512 -2.513 h 16.256 c 1.388 0 2.513 1.125 2.513 2.513 s -1.125 2.513 -2.513 2.513 H 44.891 V 75.38 h 13.742 c 1.388 0 2.513 1.125 2.513 2.513 S 60.021 80.405 58.633 80.405 z" stroke-linecap="round"/>
</g>
		<g transform="matrix(1 0 0 1 -0.3325 0.249)" id="Layer_1">
<path style="stroke: none; stroke-width: 1; stroke-dasharray: none; stroke-linecap: butt; stroke-dashoffset: 0; stroke-linejoin: miter; stroke-miterlimit: 4; is-custom-font: none; font-file-url: none; fill: rgb(69,75,83); fill-rule: nonzero; opacity: 1;" transform=" translate(-45.1675, -45.749)" d="M 58.633 48.262 h -26.93 c -1.389 0 -2.514 -1.125 -2.514 -2.513 s 1.125 -2.513 2.514 -2.513 h 26.93 c 1.388 0 2.513 1.125 2.513 2.513 S 60.021 48.262 58.633 48.262 z" stroke-linecap="round"/>
</g>
		<g transform="matrix(1 0 0 1 23.596 32.395)" id="Layer_1">
<path style="stroke: none; stroke-width: 1; stroke-dasharray: none; stroke-linecap: butt; stroke-dashoffset: 0; stroke-linejoin: miter; stroke-miterlimit: 4; is-custom-font: none; font-file-url: none; fill: rgb(224,241,248); fill-rule: nonzero; opacity: 1;" transform=" translate(-69.096, -77.895)" d="M 69.096 67.433 c 5.779 0 10.465 4.685 10.465 10.464 s -4.686 10.46 -10.465 10.46 c -5.776 0 -10.465 -4.681 -10.465 -10.46 S 63.319 67.433 69.096 67.433 z" stroke-linecap="round"/>
</g>
		<g transform="matrix(1 0 0 1 23.5965 32.394)" id="Layer_1">
<path style="stroke: none; stroke-width: 1; stroke-dasharray: none; stroke-linecap: butt; stroke-dashoffset: 0; stroke-linejoin: miter; stroke-miterlimit: 4; is-custom-font: none; font-file-url: none; fill: rgb(69,75,83); fill-rule: nonzero; opacity: 1;" transform=" translate(-69.0965, -77.894)" d="M 69.096 90.869 c -7.155 0 -12.977 -5.819 -12.977 -12.973 c 0 -7.155 5.821 -12.977 12.977 -12.977 c 7.156 0 12.978 5.821 12.978 12.977 C 82.073 85.05 76.252 90.869 69.096 90.869 z M 69.096 69.945 c -4.385 0 -7.951 3.566 -7.951 7.951 c 0 4.382 3.566 7.947 7.951 7.947 s 7.952 -3.565 7.952 -7.947 C 77.048 73.512 73.48 69.945 69.096 69.945 z" stroke-linecap="round"/>
</g>
		<g transform="matrix(1 0 0 1 23.596 0.3635)" id="Layer_1">
<path style="stroke: none; stroke-width: 1; stroke-dasharray: none; stroke-linecap: butt; stroke-dashoffset: 0; stroke-linejoin: miter; stroke-miterlimit: 4; is-custom-font: none; font-file-url: none; fill: rgb(224,241,248); fill-rule: nonzero; opacity: 1;" transform=" translate(-69.096, -45.8635)" d="M 69.096 35.403 c 5.779 0 10.465 4.683 10.465 10.464 c 0 5.778 -4.686 10.457 -10.465 10.457 c -5.776 0 -10.465 -4.679 -10.465 -10.457 C 58.631 40.086 63.319 35.403 69.096 35.403 z" stroke-linecap="round"/>
</g>
		<g transform="matrix(1 0 0 1 23.5965 0.3635)" id="Layer_1">
<path style="stroke: none; stroke-width: 1; stroke-dasharray: none; stroke-linecap: butt; stroke-dashoffset: 0; stroke-linejoin: miter; stroke-miterlimit: 4; is-custom-font: none; font-file-url: none; fill: rgb(69,75,83); fill-rule: nonzero; opacity: 1;" transform=" translate(-69.0965, -45.8635)" d="M 69.096 58.837 c -7.155 0 -12.977 -5.818 -12.977 -12.97 c 0 -7.155 5.821 -12.977 12.977 -12.977 c 7.156 0 12.978 5.821 12.978 12.977 C 82.073 53.019 76.252 58.837 69.096 58.837 z M 69.096 37.916 c -4.385 0 -7.951 3.566 -7.951 7.951 c 0 4.381 3.566 7.944 7.951 7.944 s 7.952 -3.563 7.952 -7.944 C 77.048 41.482 73.48 37.916 69.096 37.916 z" stroke-linecap="round"/>
</g>
		<g transform="matrix(1 0 0 1 23.596 -31.8945)" id="Layer_1">
<path style="stroke: none; stroke-width: 1; stroke-dasharray: none; stroke-linecap: butt; stroke-dashoffset: 0; stroke-linejoin: miter; stroke-miterlimit: 4; is-custom-font: none; font-file-url: none; fill: rgb(224,241,248); fill-rule: nonzero; opacity: 1;" transform=" translate(-69.096, -13.6055)" d="M 69.096 3.143 c 5.779 0 10.465 4.684 10.465 10.466 c 0 5.775 -4.686 10.459 -10.465 10.459 c -5.776 0 -10.465 -4.684 -10.465 -10.459 C 58.631 7.826 63.319 3.143 69.096 3.143 z" stroke-linecap="round"/>
</g>
		<g transform="matrix(1 0 0 1 23.5965 -31.8955)" id="Layer_1">
<path style="stroke: none; stroke-width: 1; stroke-dasharray: none; stroke-linecap: butt; stroke-dashoffset: 0; stroke-linejoin: miter; stroke-miterlimit: 4; is-custom-font: none; font-file-url: none; fill: rgb(69,75,83); fill-rule: nonzero; opacity: 1;" transform=" translate(-69.0965, -13.6045)" d="M 69.096 26.58 c -7.155 0 -12.977 -5.819 -12.977 -12.972 c 0 -7.156 5.821 -12.979 12.977 -12.979 c 7.156 0 12.978 5.822 12.978 12.979 C 82.073 20.761 76.252 26.58 69.096 26.58 z M 69.096 5.655 c -4.385 0 -7.951 3.567 -7.951 7.953 c 0 4.382 3.566 7.946 7.951 7.946 s 7.952 -3.564 7.952 -7.946 C 77.048 9.223 73.48 5.655 69.096 5.655 z" stroke-linecap="round"/>
</g>
		<g transform="matrix(1 0 0 1 -24.5675 0.363)" id="Layer_1">
<rect style="stroke: none; stroke-width: 1; stroke-dasharray: none; stroke-linecap: butt; stroke-dashoffset: 0; stroke-linejoin: miter; stroke-miterlimit: 4; is-custom-font: none; font-file-url: none; fill: rgb(154,191,218); fill-rule: nonzero; opacity: 1;" x="-10.7705" y="-13.336" rx="0" ry="0" width="21.541" height="26.672"/>
</g>
		<g transform="matrix(1 0 0 1 -24.5675 0.363)" id="Layer_1">
<path style="stroke: none; stroke-width: 1; stroke-dasharray: none; stroke-linecap: butt; stroke-dashoffset: 0; stroke-linejoin: miter; stroke-miterlimit: 4; is-custom-font: none; font-file-url: none; fill: rgb(69,75,83); fill-rule: nonzero; opacity: 1;" transform=" translate(-20.9325, -45.863)" d="M 31.703 61.712 H 10.162 c -1.387 0 -2.512 -1.125 -2.512 -2.513 V 32.527 c 0 -1.388 1.125 -2.513 2.512 -2.513 h 21.541 c 1.387 0 2.512 1.125 2.512 2.513 v 26.672 C 34.215 60.587 33.09 61.712 31.703 61.712 z M 12.676 56.687 h 16.514 V 35.04 H 12.676 V 56.687 z" stroke-linecap="round"/>
</g>
</g>
</g>
</svg>