<?xml version="1.0" standalone="no"?>
<!DOCTYPE svg PUBLIC "-//W3C//DTD SVG 20010904//EN"
 "http://www.w3.org/TR/2001/REC-SVG-20010904/DTD/svg10.dtd">
<svg version="1.0" xmlns="http://www.w3.org/2000/svg"
 width="530.000000pt" height="530.000000pt" viewBox="0 0 530.000000 530.000000"
 preserveAspectRatio="xMidYMid meet">

<g transform="translate(0.000000,530.000000) scale(0.100000,-0.100000)"
fill="#000000" stroke="none">
<path d="M2383 5196 c-23 -17 -42 -34 -43 -38 0 -11 62 -10 78 1 8 5 12 21 10
38 l-3 30 -42 -31z"/>
<path d="M2660 5153 c0 -4 4 -25 9 -45 5 -21 6 -38 2 -38 -4 0 -41 11 -81 25
-40 14 -75 23 -77 21 -3 -2 7 -27 22 -56 28 -56 31 -57 107 -21 36 17 37 17
42 -3 9 -34 7 -46 -7 -40 -8 3 -20 -2 -26 -10 -11 -13 -9 -17 10 -24 74 -28
74 -28 107 51 25 57 28 74 18 82 -7 6 -13 21 -12 35 1 24 -2 25 -56 28 -32 2
-58 -1 -58 -5z"/>
<path d="M2325 5128 c-16 -6 -60 -37 -96 -69 l-67 -59 -7 -95 c-6 -84 -9 -97
-31 -112 -13 -10 -49 -58 -79 -108 l-55 -90 32 -5 c24 -4 33 -10 34 -25 1 -11
2 -22 3 -25 1 -3 4 -18 5 -35 3 -26 0 -30 -22 -32 -16 -1 -20 2 -12 7 7 4 10
14 8 21 -3 8 -15 -2 -33 -25 l-28 -37 29 -30 c21 -22 35 -28 52 -24 20 5 22 3
16 -20 -7 -30 -8 -38 -5 -85 1 -25 13 -48 41 -79 37 -43 39 -44 63 -28 16 10
36 47 61 116 29 77 43 101 58 103 17 2 21 12 25 51 2 34 0 47 -9 47 -17 0 -58
89 -45 97 5 3 13 0 18 -8 22 -39 37 -48 89 -54 l55 -6 18 36 c9 20 15 41 12
46 -4 5 -1 9 5 9 6 0 8 5 5 10 -3 6 0 10 7 10 13 0 -54 49 -105 76 -26 14 -31
14 -52 0 -31 -21 -35 -20 -35 4 0 12 -10 25 -22 31 -21 9 -21 9 5 4 17 -3 26
-1 25 6 -2 6 62 35 143 66 l145 54 0 34 c-1 19 -4 35 -7 35 -4 0 -10 7 -13 16
-3 8 -2 12 4 9 6 -4 7 1 3 10 -6 17 -19 17 -80 -1 -18 -5 -28 3 -58 49 -30 46
-36 61 -30 86 6 28 4 31 -17 30 -13 0 -36 -5 -53 -11z m-136 -512 c39 -37 71
-69 71 -71 0 -1 -8 -10 -19 -19 -18 -16 -18 -16 -13 9 5 27 -20 65 -43 65 -25
0 -35 -25 -19 -48 l15 -22 -34 23 c-36 23 -34 47 4 47 11 0 19 5 19 11 0 5 -5
7 -12 3 -6 -4 -8 -3 -4 4 6 11 -30 52 -46 52 -4 0 -8 5 -8 11 0 18 16 7 89
-65z m71 -15 c0 -6 -4 -13 -10 -16 -5 -3 -10 1 -10 9 0 9 5 16 10 16 6 0 10
-4 10 -9z m-19 -143 c30 -37 34 -45 13 -25 -17 15 -34 24 -39 20 -4 -5 -5 -2
-1 5 5 8 1 21 -10 33 -9 10 -15 19 -11 19 3 0 24 -24 48 -52z"/>
<path d="M2991 5063 c1 -83 12 -92 33 -27 15 47 16 58 4 65 -29 19 -38 9 -37
-38z"/>
<path d="M3169 5053 c0 -27 -1 -27 -9 -5 -13 32 -29 28 -82 -22 -47 -43 -58
-72 -37 -93 8 -8 6 -20 -6 -43 l-17 -33 27 7 c17 4 24 3 20 -4 -3 -5 -14 -10
-23 -10 -10 0 -42 -9 -72 -19 l-54 -19 -62 49 c-75 60 -108 74 -125 53 -9 -11
-15 -12 -25 -3 -8 6 -14 8 -14 3 0 -5 -14 -18 -30 -29 -39 -26 -38 -44 4 -84
21 -21 37 -47 41 -70 3 -20 8 -44 11 -53 5 -16 -3 -18 -65 -18 -68 0 -71 -1
-77 -26 -5 -17 -2 -29 7 -35 8 -5 14 -18 14 -31 0 -16 25 -39 106 -94 l106
-73 37 31 c40 33 54 32 36 -2 -19 -35 -4 -34 18 2 20 30 20 34 4 39 -16 6 -16
7 1 14 12 5 14 11 8 19 -5 6 -11 14 -13 17 -1 3 9 19 24 37 34 40 29 76 -9 61
-13 -5 -36 -9 -49 -9 -23 0 -24 1 -9 16 9 9 15 18 13 19 -2 2 -31 0 -65 -4
-34 -4 -60 -4 -57 1 3 4 22 8 42 9 20 0 81 10 135 23 88 20 99 25 113 52 22
42 25 78 5 86 -9 4 6 7 34 7 75 2 96 10 93 35 -5 33 -20 45 -46 35 -13 -5 -26
-9 -28 -9 -3 0 19 28 50 63 31 34 56 72 56 84 0 50 -29 75 -31 26z"/>
<path d="M3343 4778 c-92 -86 -96 -94 -69 -149 13 -27 13 -27 -7 -16 -11 7
-29 21 -40 31 -20 19 -20 19 -43 -25 -21 -42 -16 -65 9 -40 15 15 27 14 27 -4
0 -19 -1 -19 93 4 42 10 77 14 77 10 0 -5 -3 -9 -7 -9 -5 0 -23 -9 -41 -20
-29 -18 -31 -23 -21 -41 9 -17 13 -19 20 -8 7 11 9 11 9 1 0 -7 -7 -20 -15
-28 -22 -22 -18 -41 8 -40 18 1 22 -4 22 -28 0 -20 6 -31 20 -36 24 -9 35 5
35 43 0 15 14 48 30 75 l30 47 -35 31 -35 31 39 7 c22 3 45 14 50 24 16 26 13
6 -5 -36 -15 -37 -15 -37 13 -59 15 -13 31 -23 35 -23 4 0 41 44 82 98 l76 97
-78 3 c-64 2 -79 0 -90 -15 -13 -17 -13 -17 -11 2 2 11 -1 31 -5 45 -13 38
-60 109 -73 110 -6 0 -51 -37 -100 -82z"/>
<path d="M3103 4752 c-59 -39 -60 -40 -18 -57 20 -9 38 -15 40 -13 8 10 33 98
27 97 -4 0 -26 -12 -49 -27z"/>
<path d="M3223 4754 l-28 -25 33 22 c17 13 32 24 32 26 0 8 -11 1 -37 -23z"/>
<path d="M2989 4598 c-1 -21 -2 -43 -3 -50 -1 -6 5 -13 12 -15 15 -6 17 64 2
87 -7 11 -10 6 -11 -22z"/>
<path d="M3043 4535 c-10 -11 -7 -18 16 -35 22 -15 29 -28 28 -48 -2 -26 0
-27 73 -39 41 -6 89 -12 105 -12 l30 0 -27 15 c-16 8 -28 17 -28 20 0 11 45
-8 58 -24 6 -9 12 -11 12 -6 0 6 -15 25 -34 43 l-34 33 -9 -27 c-8 -25 -10
-26 -23 -11 -11 14 -11 17 0 14 8 -2 16 6 18 17 2 11 9 24 16 28 7 6 6 7 -4 4
-8 -2 -23 2 -32 11 -12 10 -18 11 -18 4 0 -7 -5 -12 -12 -12 -6 0 -8 3 -5 7
11 10 -51 33 -87 33 -17 -1 -37 -7 -43 -15z"/>
<path d="M2410 4422 c-67 -33 -72 -37 -47 -40 27 -3 28 -4 10 -17 -14 -11 -15
-14 -3 -15 20 0 42 15 38 26 -1 5 11 10 29 12 21 2 37 12 48 29 28 42 4 44
-75 5z"/>
<path d="M3643 4357 c-46 -23 -83 -45 -83 -50 0 -10 68 -39 79 -33 8 5 94 126
89 125 -2 0 -40 -19 -85 -42z"/>
<path d="M1960 4371 c0 -26 31 -82 42 -79 19 7 23 78 4 78 -8 0 -21 3 -30 6
-9 3 -16 1 -16 -5z"/>
<path d="M2510 4355 c0 -8 4 -15 10 -15 5 0 7 7 4 15 -4 8 -8 15 -10 15 -2 0
-4 -7 -4 -15z"/>
<path d="M2462 4312 c-25 -14 -30 -20 -20 -30 17 -17 45 -15 52 4 6 15 9 14
31 -6 13 -13 22 -27 19 -31 -8 -14 -24 -10 -24 6 0 19 -13 19 -50 0 -26 -14
-30 -13 -40 3 -8 13 -10 9 -8 -23 3 -34 6 -40 27 -41 37 -2 52 -44 15 -44 -11
0 -10 -4 4 -18 16 -16 19 -16 70 11 56 30 57 38 13 75 -14 11 -13 12 7 9 12
-2 28 -9 35 -17 9 -10 9 -11 0 -6 -7 4 -13 2 -13 -3 0 -6 5 -12 10 -12 6 -1
16 -2 23 -3 6 -1 11 -6 11 -11 -1 -6 13 -22 31 -38 l33 -27 17 51 c10 28 13
54 9 58 -16 11 -15 32 2 29 9 -2 19 3 21 10 3 8 -7 12 -34 12 -29 0 -35 -3
-23 -11 11 -8 9 -9 -10 -4 -71 19 -169 59 -164 66 8 13 -7 10 -44 -9z m13 -92
c3 -5 2 -10 -4 -10 -5 0 -13 5 -16 10 -3 6 -2 10 4 10 5 0 13 -4 16 -10z"/>
<path d="M2878 4293 c7 -3 16 -2 19 1 4 3 -2 6 -13 5 -11 0 -14 -3 -6 -6z"/>
<path d="M2910 4290 c0 -9 1 -10 107 -39 40 -11 75 -16 78 -11 7 12 0 15 -85
34 -41 10 -81 19 -87 22 -7 2 -13 -1 -13 -6z"/>
<path d="M1944 4251 c-4 -26 -12 -41 -24 -44 -19 -5 -40 -61 -40 -104 0 -27 8
-28 38 -7 21 14 22 14 22 -7 0 -17 3 -19 14 -10 11 9 26 -1 73 -50 44 -45 62
-58 68 -49 6 9 4 11 -6 6 -8 -4 -4 1 8 11 12 10 25 30 28 46 4 15 11 27 16 27
13 0 69 -42 69 -51 0 -3 -22 -9 -49 -13 -43 -6 -50 -10 -60 -36 -10 -29 -12
-30 -70 -30 -33 0 -62 -3 -64 -8 -3 -4 -8 -49 -12 -100 -7 -79 -5 -92 8 -92 8
0 18 6 20 13 3 6 6 2 6 -10 1 -13 6 -23 11 -23 6 0 10 -7 10 -15 0 -9 8 -6 25
11 19 19 31 23 48 18 12 -3 24 -7 27 -8 3 0 7 4 9 9 3 6 -8 12 -23 15 l-27 5
29 28 30 29 22 -30 c17 -23 27 -28 48 -24 24 5 26 4 13 -11 -7 -10 -9 -17 -3
-17 19 0 126 130 115 141 -6 6 -23 -10 -48 -45 l-39 -53 -32 40 -32 40 31 39
c18 20 40 38 49 38 10 0 25 11 34 26 9 14 23 23 30 20 9 -3 14 2 14 13 0 10
-7 21 -15 25 -9 3 -14 17 -14 33 2 24 2 25 6 6 6 -29 14 -29 41 0 24 26 29 66
10 85 -23 23 -107 14 -163 -17 -43 -25 -52 -27 -52 -13 0 10 4 20 10 23 5 4 5
9 -2 13 -6 4 -11 3 -11 -3 0 -6 -13 -2 -30 7 -20 12 -30 26 -32 47 -3 26 -12
35 -65 63 l-63 33 -6 -40z m50 0 c4 -5 1 -11 -6 -13 -6 -2 3 -10 20 -17 18 -8
32 -17 32 -22 0 -5 -11 -2 -25 7 -14 9 -32 13 -41 10 -11 -4 -15 -2 -11 8 3 7
0 19 -6 25 -8 8 -5 11 10 11 12 0 24 -4 27 -9z m-7 -447 c-3 -3 -12 -4 -19 -1
-8 3 -5 6 6 6 11 1 17 -2 13 -5z"/>
<path d="M3285 4283 c-11 -3 -24 -9 -29 -14 -13 -12 -29 -11 -21 1 3 6 1 10
-4 10 -6 0 -11 -7 -11 -15 0 -13 -7 -15 -35 -9 -29 5 -35 3 -35 -11 0 -12 5
-15 20 -10 13 4 22 1 24 -7 2 -7 13 -43 25 -79 21 -67 26 -119 12 -154 -11
-27 41 -74 75 -67 13 2 24 12 25 21 0 9 6 3 14 -14 7 -16 9 -32 5 -35 -5 -3
-9 -31 -9 -63 0 -51 2 -55 15 -42 9 8 20 15 26 15 7 0 9 27 4 86 -7 83 -7 86
13 79 12 -3 21 -2 21 3 0 13 -74 42 -80 31 -3 -4 -10 -5 -15 -1 -13 9 -18 55
-6 48 5 -4 55 33 111 81 100 86 109 102 55 103 -12 0 -25 4 -30 9 -29 26 -124
45 -170 34z m-25 -108 c0 -5 -5 -3 -10 5 -5 8 -10 20 -10 25 0 6 5 3 10 -5 5
-8 10 -19 10 -25z m28 -100 c17 -36 15 -41 -8 -20 -20 18 -27 45 -12 45 5 0
14 -11 20 -25z"/>
<path d="M2866 4265 c-109 -57 -106 -53 -106 -117 l0 -58 64 0 c63 0 64 1 75
31 12 35 14 114 3 141 -7 16 -10 16 -36 3z"/>
<path d="M2278 4233 c19 -34 70 -76 86 -70 17 7 22 27 7 27 -5 0 -16 6 -23 14
-8 7 -29 21 -47 30 -31 16 -32 16 -23 -1z"/>
<path d="M2380 4200 c8 -5 20 -10 25 -10 6 0 3 5 -5 10 -8 5 -19 10 -25 10 -5
0 -3 -5 5 -10z"/>
<path d="M3130 4190 c-15 -28 -13 -31 15 -18 28 13 32 23 10 32 -8 3 -19 -3
-25 -14z"/>
<path d="M2390 4154 c0 -8 5 -12 10 -9 6 3 10 10 10 16 0 5 -4 9 -10 9 -5 0
-10 -7 -10 -16z"/>
<path d="M2565 4143 l-30 -16 50 -14 c63 -16 65 -16 65 1 0 13 -37 47 -50 46
-3 -1 -18 -8 -35 -17z"/>
<path d="M2430 4107 c0 -7 7 -22 15 -33 16 -22 20 -54 5 -54 -5 0 -19 13 -31
30 -22 29 -43 33 -33 6 3 -8 0 -17 -7 -22 -8 -5 -10 -3 -4 7 5 8 4 10 0 6 -12
-10 -15 -38 -4 -31 5 3 9 1 9 -5 0 -5 -5 -13 -10 -16 -8 -5 -8 -11 -1 -19 7
-9 7 -16 -1 -24 -8 -8 -7 -13 4 -17 9 -4 14 -14 11 -24 -6 -23 25 -49 73 -59
31 -7 47 -5 79 11 22 11 43 25 47 31 5 7 8 6 8 -4 1 -8 10 5 20 30 21 50 26
100 9 100 -5 0 -7 5 -4 10 3 6 2 10 -4 10 -10 0 -19 -36 -23 -100 -3 -33 -6
-29 -49 62 -43 87 -68 118 -98 118 -6 0 -11 -6 -11 -13z"/>
<path d="M3175 4100 c-11 -5 -15 -9 -10 -10 6 -1 -6 -6 -25 -10 -19 -5 -36 -5
-38 0 -5 14 -63 -8 -85 -31 -16 -18 -18 -25 -9 -40 10 -16 8 -21 -13 -35 -32
-21 -33 -58 -1 -79 34 -22 63 -7 57 29 -1 5 5 6 13 3 10 -4 27 11 50 44 31 43
40 49 71 49 35 0 35 0 35 45 0 47 -6 52 -45 35z m-27 -52 c-6 -16 -21 -14 -24
4 -1 11 3 15 12 11 8 -3 13 -10 12 -15z"/>
<path d="M3857 4103 c-18 -4 -17 -6 4 -29 27 -28 38 -30 54 -7 25 34 -2 51
-58 36z"/>
<path d="M2686 4049 c3 -5 1 -9 -3 -9 -12 0 -76 -177 -70 -194 5 -11 20 -10
94 6 48 11 92 24 96 28 19 17 -6 89 -45 128 -35 35 -87 65 -72 41z"/>
<path d="M2786 4049 c3 -5 25 -22 49 -39 37 -25 48 -29 65 -20 23 12 27 25 5
16 -9 -3 -15 0 -15 8 0 7 -24 19 -55 28 -30 8 -52 11 -49 7z"/>
<path d="M3347 4044 c-8 -8 1 -24 14 -24 5 0 9 7 9 15 0 15 -12 20 -23 9z"/>
<path d="M1935 4031 c3 -5 -9 -11 -26 -13 l-31 -3 26 -28 c14 -15 26 -32 26
-38 0 -10 15 -11 48 -3 12 4 22 12 22 19 0 18 -37 48 -50 40 -9 -5 -10 -1 -5
14 4 13 2 21 -5 21 -6 0 -9 -4 -5 -9z"/>
<path d="M2792 4004 c21 -21 41 -34 47 -29 8 4 -1 17 -26 36 -53 40 -65 36
-21 -7z"/>
<path d="M3662 4028 c5 -15 28 -18 29 -3 0 6 -7 12 -17 13 -10 3 -15 -1 -12
-10z"/>
<path d="M1841 3988 c0 -7 8 -35 18 -63 l18 -50 17 33 c14 27 15 36 5 50 -17
22 -41 42 -51 42 -4 0 -8 -6 -7 -12z"/>
<path d="M2844 3933 c18 -20 25 -36 20 -45 -6 -10 -5 -11 8 -1 8 7 18 10 21 6
4 -3 7 1 7 10 0 9 -4 19 -10 22 -5 3 -10 1 -10 -6 0 -7 -15 0 -32 17 l-33 29
29 -32z"/>
<path d="M2924 3903 c5 -30 4 -35 -5 -23 -9 13 -10 12 -5 -3 3 -10 6 -22 6
-25 0 -10 35 42 36 53 0 14 -16 35 -28 35 -6 0 -8 -15 -4 -37z"/>
<path d="M3130 3900 c-48 -35 -56 -45 -61 -83 -4 -23 -2 -48 3 -54 13 -17 43
-17 60 0 7 7 28 23 46 36 l33 23 -30 23 c-17 12 -28 25 -24 28 3 4 -5 7 -18 8
-20 1 -18 2 10 10 18 6 30 13 27 16 -3 3 -1 12 5 20 18 20 8 16 -51 -27z"/>
<path d="M3216 3931 c-1 -3 0 -31 4 -61 7 -52 7 -53 10 -15 1 22 2 43 1 48 0
4 8 7 19 7 11 0 20 4 20 9 0 10 -49 21 -54 12z"/>
<path d="M1699 3893 c-8 -11 -30 -25 -49 -31 -29 -10 -42 -25 -77 -91 -24 -43
-43 -81 -43 -84 0 -2 30 -8 68 -11 37 -4 88 -9 113 -12 l45 -5 16 40 16 41
-37 57 c-55 86 -54 83 -37 77 18 -7 20 4 7 25 -7 10 -11 9 -22 -6z"/>
<path d="M3282 3876 c-24 -22 -31 -34 -20 -32 10 1 21 5 24 9 4 4 16 7 26 7
13 0 18 7 18 25 0 14 -2 25 -5 25 -3 0 -22 -15 -43 -34z"/>
<path d="M1804 3882 c-40 -26 4 -74 57 -63 17 3 30 11 31 16 2 14 -75 55 -88
47z"/>
<path d="M2866 3851 c-11 -4 -25 -26 -32 -51 l-13 -43 44 43 c51 50 52 71 1
51z"/>
<path d="M2678 3828 c-27 -6 -48 -14 -48 -18 0 -4 13 -38 29 -75 l28 -67 25
68 25 68 12 -37 c14 -42 21 -45 44 -19 22 24 22 48 0 61 -10 6 -13 11 -8 11 6
0 3 5 -5 10 -18 11 -39 11 -102 -2z"/>
<path d="M2318 3790 c-9 -19 -18 -47 -22 -62 -6 -27 -4 -28 29 -28 40 0 43 14
21 85 l-13 40 -15 -35z"/>
<path d="M3232 3794 c2 -10 15 -24 29 -31 15 -7 32 -26 39 -43 15 -37 26 -38
33 -3 7 36 2 43 -29 43 -14 0 -23 4 -20 8 3 5 -9 16 -25 26 -30 18 -31 18 -27
0z"/>
<path d="M1859 3764 c-5 -15 -11 -30 -14 -33 -2 -4 5 -17 14 -30 25 -33 61
-21 61 20 0 64 -41 93 -61 43z"/>
<path d="M2428 3768 l-47 -10 36 -57 c42 -66 33 -57 64 -64 23 -6 27 -2 41 42
15 48 15 49 -9 75 -13 14 -27 25 -31 25 -4 -1 -28 -6 -54 -11z"/>
<path d="M2560 3724 c-34 -77 -35 -90 -8 -98 13 -3 40 -6 60 -6 32 0 39 4 44
26 9 34 -21 99 -52 113 -23 10 -26 8 -44 -35z"/>
<path d="M2831 3745 c-37 -48 -45 -81 -28 -122 8 -20 18 -38 23 -40 5 -1 31
27 57 63 50 68 69 103 49 90 -7 -4 -12 -3 -12 3 0 9 -27 22 -57 27 -7 1 -21
-8 -32 -21z"/>
<path d="M3175 3716 c1 -26 9 -52 19 -61 9 -9 16 -22 16 -28 1 -7 7 1 14 18 8
19 15 25 20 17 4 -7 17 -10 31 -6 13 3 37 -2 55 -11 59 -30 19 6 -66 61 -46
30 -85 54 -87 54 -2 0 -3 -20 -2 -44z"/>
<path d="M2180 3704 c0 -10 38 -21 49 -15 9 6 3 10 -18 13 -17 2 -31 3 -31 2z"/>
<path d="M1950 3655 c0 -39 0 -39 16 -16 15 21 15 24 0 39 -15 15 -16 13 -16
-23z"/>
<path d="M2163 3550 c-63 -112 -73 -137 -73 -179 0 -53 7 -81 21 -81 4 0 24
-11 44 -24 45 -31 91 -42 110 -26 8 6 18 9 23 6 6 -3 16 2 23 11 12 14 12 16
-1 8 -8 -5 14 21 49 58 36 37 66 65 68 63 2 -1 -2 -17 -8 -35 -6 -18 -9 -35
-5 -38 3 -4 6 -1 6 6 0 7 5 9 12 5 6 -4 9 -3 5 2 -3 5 1 18 9 29 14 18 14 16
8 -25 -11 -71 -21 -90 -47 -90 -13 0 -27 -3 -31 -7 -4 -5 -22 -9 -39 -9 -18
-1 -46 -2 -63 -3 -18 0 -43 -12 -58 -26 -31 -29 -33 -25 43 -103 25 -26 72
-75 104 -109 54 -58 58 -61 66 -40 4 12 18 49 30 81 24 64 21 112 -4 102 -25
-9 -17 0 24 27 33 22 43 37 65 103 14 43 25 78 23 79 -1 1 -18 14 -38 28 -20
15 -40 24 -44 19 -5 -4 3 10 18 30 16 22 23 39 17 43 -7 4 -6 13 1 27 9 18 8
24 -7 35 -10 7 -21 13 -25 13 -4 0 -9 10 -11 22 -4 28 -169 127 -213 127 -28
1 -34 -7 -102 -129z"/>
<path d="M3884 3634 c10 -39 11 -39 42 -19 29 19 24 30 -20 41 -28 7 -29 6
-22 -22z"/>
<path d="M3745 3603 c-25 -33 -43 -47 -56 -45 -10 2 -19 -2 -19 -7 0 -6 5 -11
11 -11 6 0 1 -15 -10 -34 -26 -41 -26 -43 -1 -83 l19 -32 58 20 c70 23 109 70
100 119 -6 26 -3 30 14 30 15 0 19 5 15 16 -3 9 -6 22 -6 29 0 16 -21 29 -62
39 -24 5 -32 0 -63 -41z"/>
<path d="M3375 3630 c3 -5 8 -10 11 -10 2 0 4 5 4 10 0 6 -5 10 -11 10 -5 0
-7 -4 -4 -10z"/>
<path d="M3436 3586 c-15 -31 -29 -56 -32 -56 -2 0 -23 9 -45 21 -23 11 -43
18 -46 16 -2 -3 13 -28 34 -56 29 -39 44 -50 66 -50 27 -1 28 1 22 31 -6 26
-5 30 10 25 9 -4 21 -7 26 -7 5 0 3 -13 -6 -30 -31 -60 -34 -77 -19 -99 14
-20 17 -20 44 -6 27 14 30 14 40 -4 5 -11 10 -33 10 -50 0 -17 2 -31 4 -31 16
0 145 84 140 91 -3 5 -13 5 -24 -1 -10 -5 -23 -10 -28 -10 -14 0 -21 62 -10
86 8 18 2 35 -31 93 -23 39 -46 69 -50 66 -5 -2 -14 -18 -21 -35 -13 -31 -30
-40 -30 -16 0 7 -6 28 -14 46 l-13 33 -27 -57z m74 -62 c0 -8 -5 -12 -10 -9
-6 4 -8 11 -5 16 9 14 15 11 15 -7z"/>
<path d="M2962 3610 c0 -14 2 -19 5 -12 2 6 2 18 0 25 -3 6 -5 1 -5 -13z"/>
<path d="M2517 3604 c-18 -19 5 -84 30 -84 18 0 67 60 57 69 -13 13 -78 24
-87 15z"/>
<path d="M3164 3574 c-28 -22 -31 -27 -20 -49 17 -37 32 -30 50 22 9 26 16 48
16 50 0 8 -18 0 -46 -23z"/>
<path d="M2860 3570 c8 -5 26 -10 39 -10 32 0 24 6 -19 14 -25 4 -31 3 -20 -4z"/>
<path d="M2579 3523 l-34 -38 38 34 c20 19 37 36 37 38 0 8 -8 0 -41 -34z"/>
<path d="M2843 3530 c3 -19 14 -54 24 -77 l18 -42 42 27 c45 29 56 59 28 82
-12 10 -15 10 -15 0 0 -20 -59 -4 -82 22 l-19 23 4 -35z"/>
<path d="M2597 3512 l-36 -37 23 -29 23 -29 12 34 c38 103 33 117 -22 61z"/>
<path d="M3862 3488 c-24 -38 -23 -41 12 -32 19 4 26 13 26 29 0 37 -16 38
-38 3z"/>
<path d="M1430 3408 l-44 -85 22 -31 c16 -22 35 -33 65 -39 41 -9 42 -8 45 20
2 20 -4 37 -19 53 -19 20 -21 31 -16 76 10 99 -5 101 -53 6z"/>
<path d="M3267 3443 c46 -46 131 -81 140 -57 8 23 -14 63 -39 73 -13 5 -49 12
-81 15 l-58 8 38 -39z"/>
<path d="M1646 3388 c19 -21 19 -21 -4 -15 -34 8 -51 -32 -28 -67 21 -33 20
-39 -4 -31 -11 3 -20 2 -20 -3 0 -10 66 -72 76 -72 3 0 27 9 54 21 44 19 49
25 55 62 7 37 9 39 21 23 7 -11 15 -24 17 -30 2 -7 18 -4 46 8 l42 19 -32 33
c-36 37 -111 64 -193 70 l-48 3 18 -21z"/>
<path d="M3117 3365 c-4 -25 -4 -25 14 -9 22 20 24 34 5 34 -7 0 -16 -11 -19
-25z"/>
<path d="M1050 3355 c27 -29 40 -32 40 -10 0 9 -12 20 -26 25 -38 15 -40 13
-14 -15z"/>
<path d="M3944 3326 c-9 -24 15 -57 54 -74 l37 -17 -65 -5 -65 -5 35 -19 34
-19 -48 -42 c-34 -29 -45 -44 -37 -50 8 -5 28 10 55 40 l42 48 32 -17 c39 -20
77 -13 67 12 -21 50 -20 52 28 37 l45 -13 12 43 c7 24 10 56 6 70 -6 25 -7 25
-117 25 -85 0 -111 -3 -115 -14z"/>
<path d="M3356 3296 c-61 -37 -56 -59 24 -95 71 -32 81 -34 123 -32 26 1 27 3
27 51 0 47 -1 50 -20 38 -17 -11 -24 -8 -58 25 -21 20 -42 37 -47 37 -6 0 -28
-11 -49 -24z"/>
<path d="M1160 3280 c-19 -16 -30 -29 -23 -30 23 0 83 34 83 47 0 21 -23 15
-60 -17z"/>
<path d="M2400 3291 c0 -5 -3 -16 -6 -24 -4 -12 0 -14 17 -10 13 4 18 8 11 11
-10 3 -10 7 -1 18 9 11 8 14 -5 14 -9 0 -16 -4 -16 -9z"/>
<path d="M3148 3257 c-56 -41 -57 -43 -58 -89 0 -53 -15 -64 -25 -19 -4 21
-11 28 -21 24 -8 -3 -20 -1 -27 5 -10 8 -47 13 -47 6 0 -1 21 -60 47 -131 l48
-128 7 89 c4 49 9 91 11 93 2 2 12 -35 22 -82 10 -47 21 -85 24 -85 4 0 13 6
19 12 13 13 15 11 40 -30 5 -7 16 -10 25 -6 25 9 24 119 0 133 -17 9 -17 11 0
28 16 16 17 16 17 -8 0 -19 10 -31 39 -47 21 -12 43 -22 49 -22 5 0 31 17 58
39 42 33 49 44 48 72 l-1 34 -75 3 c-72 3 -77 1 -97 -23 l-20 -27 -3 98 c-2
54 -7 99 -13 100 -5 2 -36 -16 -67 -39z"/>
<path d="M3657 3260 c-15 -12 -25 -26 -22 -31 4 -5 2 -9 -4 -9 -5 0 -13 -10
-16 -21 -5 -16 -9 -18 -15 -8 -6 9 -28 -5 -84 -55 l-75 -67 50 -65 51 -64 -57
0 -57 0 6 -37 c13 -72 14 -73 61 -73 24 0 56 5 70 10 21 8 25 14 19 33 -3 12
-13 29 -20 38 -18 20 -18 29 0 29 7 0 21 -20 30 -43 16 -44 17 -44 67 -44 l51
0 -4 193 c-2 105 -6 190 -10 188 -4 -2 -8 7 -10 22 l-3 26 -28 -22z m-20 -146
c-6 -6 -47 9 -47 17 0 5 11 3 25 -3 14 -6 24 -13 22 -14z"/>
<path d="M2030 3200 c0 -5 -6 -10 -14 -10 -8 0 -23 -11 -34 -25 -11 -13 -22
-21 -26 -18 -3 3 -7 1 -7 -5 -1 -7 -2 -17 -3 -22 0 -6 -8 -15 -16 -20 -11 -7
-6 -10 20 -11 19 0 29 -3 23 -6 -7 -2 -13 -10 -13 -18 0 -7 -7 -18 -15 -25
-12 -10 -18 -10 -30 0 -12 10 -15 9 -15 -6 0 -12 20 -32 50 -52 45 -29 50 -36
50 -69 0 -29 -8 -43 -40 -74 -43 -41 -49 -52 -25 -43 8 4 15 1 15 -6 0 -6 -5
-8 -12 -4 -8 5 -9 2 -4 -11 7 -18 6 -18 -16 0 -13 11 -29 26 -36 35 -11 13
-15 12 -32 -10 -20 -27 -16 -38 16 -43 12 -1 32 -11 45 -20 21 -16 21 -16 2
-7 -32 15 -34 13 -31 -27 2 -30 8 -39 28 -44 14 -4 18 -7 8 -8 -29 -2 -34 -42
-7 -63 15 -12 18 -16 7 -12 -11 4 -18 1 -18 -6 0 -6 -4 -8 -10 -5 -6 4 -10 -9
-10 -31 0 -36 1 -36 32 -30 73 14 108 27 102 37 -3 6 12 1 35 -10 46 -24 55
-26 45 -10 -4 7 -1 10 7 7 8 -3 13 -10 12 -15 -2 -11 317 -144 356 -149 13 -1
27 -6 30 -11 3 -5 30 -24 59 -42 28 -18 52 -36 52 -40 0 -15 -167 -171 -183
-171 -14 0 -11 -10 19 -55 40 -59 48 -63 82 -39 28 19 82 36 82 24 0 -4 -6
-10 -13 -13 -9 -3 -18 -42 -27 -111 -13 -105 -13 -108 10 -157 13 -27 29 -54
35 -59 15 -12 222 -43 246 -37 14 4 20 -2 24 -27 11 -74 14 -77 10 -18 -2 38
1 62 7 62 6 0 37 12 69 26 50 23 57 29 49 44 -7 13 -5 22 7 31 12 10 15 10 9
1 -5 -8 1 -15 16 -21 20 -8 21 -10 6 -16 -25 -10 -23 -14 23 -70 45 -55 63
-61 133 -44 l48 12 -6 41 c-4 23 -15 49 -27 58 -16 14 -18 20 -8 36 9 14 9 27
1 50 -15 44 10 50 62 16 22 -15 36 -29 31 -30 -6 -1 -22 -5 -37 -8 -23 -5 -28
-12 -28 -36 0 -26 5 -30 43 -40 23 -6 58 -15 77 -20 24 -7 36 -6 41 2 9 15 1
30 -12 23 -5 -4 -9 -2 -9 4 0 5 5 13 10 16 8 5 7 12 -2 23 -11 13 -10 15 5 9
12 -5 17 -1 17 12 0 10 -3 20 -6 23 -10 11 -44 -4 -44 -20 0 -31 -15 0 -17 36
-1 20 -9 42 -18 48 -8 6 -15 21 -15 33 0 23 -14 28 -26 10 -4 -8 -10 -6 -17 6
-6 12 -6 20 2 24 8 5 5 13 -9 26 -17 15 -22 16 -36 4 -16 -13 -16 -12 -5 10
12 21 10 26 -11 48 -15 15 -41 27 -66 30 -23 3 -39 9 -37 13 3 5 -1 11 -7 14
-14 6 29 -4 51 -12 26 -10 6 17 -82 113 -49 52 -93 93 -98 89 -5 -3 -8 0 -7 8
2 7 -8 14 -21 16 -17 3 -20 6 -11 12 10 6 7 14 -11 33 -13 13 -37 40 -54 59
-16 19 0 4 38 -34 48 -49 74 -68 93 -68 19 0 169 86 202 115 11 10 -11 40 -30
41 -262 15 -338 16 -338 5 0 -7 -5 -9 -10 -6 -6 4 -17 1 -25 -5 -11 -9 -15 -9
-15 -1 0 6 -8 10 -17 9 -48 -4 -153 3 -150 10 1 4 -8 20 -20 36 -24 29 -31 20
-13 -15 10 -18 6 -19 -107 -19 -65 0 -142 -3 -172 -7 -54 -6 -54 -6 -49 19 5
24 3 25 -31 17 -22 -5 -49 -4 -68 2 -29 9 -31 13 -22 35 7 20 5 29 -9 42 -10
10 -12 13 -5 8 7 -4 19 -6 27 -3 8 3 17 -1 20 -9 3 -8 13 -14 21 -14 9 0 14
-4 10 -9 -7 -12 31 -34 47 -29 6 2 12 12 14 21 2 12 -5 17 -24 17 -34 0 -26 6
20 14 37 7 38 7 28 -19 -13 -34 -13 -35 5 -35 11 0 15 12 15 46 0 28 14 86 34
143 54 149 53 143 9 173 -21 14 -49 29 -63 33 -24 8 -24 8 -7 -19 15 -22 15
-26 2 -26 -8 0 -15 5 -15 11 0 8 -4 8 -13 1 -13 -11 -38 -2 -40 14 -3 17 -31
44 -47 44 -10 1 -5 8 13 21 27 21 28 22 10 43 -18 21 -18 21 4 3 20 -17 23
-17 45 -3 29 19 30 47 3 76 l-18 20 -28 -26 c-16 -15 -25 -32 -22 -38 12 -21
-8 2 -47 55 -36 47 -40 50 -40 27 0 -47 -12 -91 -21 -76 -7 10 -12 11 -29 0
-23 -14 -24 -7 -14 72 6 43 9 47 30 43 22 -4 22 -3 6 19 -18 25 -32 31 -32 14z
m215 -120 c10 -11 16 -20 13 -20 -3 0 -13 9 -23 20 -10 11 -16 20 -13 20 3 0
13 -9 23 -20z m-213 -442 c-2 -10 -9 -18 -16 -18 -18 0 -41 18 -33 26 3 4 14
1 23 -7 16 -13 16 -12 4 11 -7 14 -19 29 -26 33 -8 4 -14 13 -14 18 0 6 15 -2
33 -18 21 -17 32 -35 29 -45z m46 -68 c13 -16 19 -30 14 -30 -4 0 -16 14 -25
30 -10 17 -16 30 -14 30 2 0 13 -13 25 -30z m52 -20 c0 -5 -5 -10 -11 -10 -5
0 -7 5 -4 10 3 6 8 10 11 10 2 0 4 -4 4 -10z m650 -380 c8 -5 10 -10 4 -10 -7
0 -22 9 -35 21 -19 16 -20 18 -4 10 11 -6 27 -15 35 -21z m-60 -51 c0 -6 -4
-7 -10 -4 -5 3 -10 11 -10 16 0 6 5 7 10 4 6 -3 10 -11 10 -16z m-20 -19 c0
-5 -2 -10 -4 -10 -3 0 -8 5 -11 10 -3 6 -1 10 4 10 6 0 11 -4 11 -10z m-30 -5
c0 -2 -10 -9 -22 -15 -22 -11 -22 -10 -4 4 21 17 26 19 26 11z m241 -15 l24
-21 -35 17 c-43 21 -47 24 -28 24 9 0 26 -9 39 -20z m-167 -114 c-3 -9 -10
-13 -15 -10 -5 3 -3 11 4 19 15 16 19 13 11 -9z m443 -32 c-4 9 -2 16 4 16 13
0 8 -32 -6 -36 -5 -2 -21 6 -35 17 l-25 20 34 -16 c31 -15 33 -15 28 -1z"/>
<path d="M1755 3178 c-9 -23 -44 -192 -41 -195 2 -2 25 22 51 52 35 42 50 53
60 45 9 -7 16 -6 25 5 7 8 8 15 3 15 -5 0 -18 7 -29 16 -15 12 -16 15 -2 10
15 -4 47 20 37 28 -47 36 -95 48 -104 24z"/>
<path d="M1571 3156 l-23 -25 37 -7 c48 -9 62 6 32 34 l-23 22 -23 -24z"/>
<path d="M3995 3130 c3 -5 8 -10 11 -10 2 0 4 5 4 10 0 6 -5 10 -11 10 -5 0
-7 -4 -4 -10z"/>
<path d="M1396 3075 c-26 -51 -34 -91 -16 -80 5 3 18 1 27 -4 15 -8 15 -11 3
-12 -8 -1 -19 -1 -25 1 -5 1 -3 -7 6 -17 8 -10 43 -50 76 -90 l61 -72 25 36
26 36 -29 76 c-66 178 -61 169 -96 173 -31 4 -35 0 -58 -47z"/>
<path d="M3835 3029 c-24 -46 -24 -51 -10 -79 20 -39 54 -70 77 -70 28 0 22
-35 -9 -56 -16 -9 -52 -35 -81 -57 l-54 -39 37 -25 c22 -15 43 -22 53 -18 16
6 16 7 1 19 -15 11 -15 13 2 35 l19 23 0 -33 c0 -28 6 -37 32 -52 l32 -18 -29
-25 c-33 -28 -41 -30 -49 -8 -5 14 -9 14 -22 3 -15 -12 -21 -8 -54 29 -31 37
-40 42 -63 37 -15 -4 -29 -11 -32 -15 -3 -5 22 -30 55 -56 59 -46 60 -48 45
-71 -17 -26 -9 -29 19 -8 17 13 22 13 42 0 37 -24 38 -18 4 28 l-32 42 41 -45
41 -45 45 48 c35 38 49 47 65 42 16 -5 23 -2 27 13 4 18 8 19 31 9 27 -12 54
-39 46 -46 -2 -2 -10 1 -17 7 -11 9 -13 6 -9 -20 l5 -32 23 29 c12 16 30 30
38 31 14 2 252 169 260 183 2 3 -77 71 -176 150 -199 160 -183 154 -258 90
l-35 -30 28 -49 c15 -28 27 -54 27 -58 0 -4 -19 -9 -41 -11 l-41 -2 4 68 c6
76 -8 117 -42 126 -17 4 -25 -4 -45 -44z m132 -191 c-3 -7 -5 -2 -5 12 0 14 2
19 5 13 2 -7 2 -19 0 -25z m287 -3 c16 -25 16 -25 -11 -24 -17 1 -21 3 -11 6
14 4 16 8 8 24 -15 27 -5 23 14 -6z m-244 -94 c0 -2 -8 3 -17 11 -36 30 -46
32 -38 8 5 -15 4 -20 -4 -16 -6 4 -11 1 -11 -6 -1 -9 -3 -9 -9 2 -8 14 -15 60
-12 85 1 9 91 -74 91 -84z m270 52 c0 -4 -10 -17 -21 -29 -18 -19 -25 -21 -40
-11 -17 11 -16 13 14 29 35 19 47 22 47 11z m-225 -102 c9 -16 -34 -33 -63
-26 l-27 7 30 13 c37 16 52 18 60 6z"/>
<path d="M1840 3033 c1 -21 19 -35 36 -29 18 7 18 8 0 22 -22 15 -36 18 -36 7z"/>
<path d="M1143 2996 c3 -8 -21 -35 -64 -70 -38 -32 -69 -61 -69 -66 0 -8 23
-16 131 -46 11 -3 33 15 63 52 25 31 46 60 46 64 0 4 -20 18 -44 31 -27 14
-42 28 -39 36 3 8 -2 13 -12 13 -10 0 -15 -5 -12 -14z"/>
<path d="M3450 2971 c0 -6 4 -13 10 -16 6 -3 7 1 4 9 -7 18 -14 21 -14 7z"/>
<path d="M3940 2964 c0 -5 7 -18 15 -28 8 -11 15 -16 15 -10 0 5 -7 18 -15 28
-8 11 -15 16 -15 10z"/>
<path d="M3235 2907 c-9 -21 2 -87 15 -87 12 0 11 44 0 80 -6 22 -8 23 -15 7z"/>
<path d="M1771 2879 c-7 -18 -5 -27 7 -37 42 -33 50 -33 76 0 14 18 22 36 18
40 -4 4 -26 10 -49 14 -39 6 -44 4 -52 -17z"/>
<path d="M657 2823 c-7 -11 10 -40 18 -31 4 4 3 14 -3 24 -5 9 -12 12 -15 7z"/>
<path d="M3374 2816 c-17 -13 -17 -18 -6 -36 8 -12 9 -19 3 -15 -14 8 9 -47
24 -57 21 -15 25 -7 25 48 l0 55 43 -34 c41 -33 43 -34 92 -23 37 8 53 18 64
38 15 26 7 55 -8 30 -6 -9 -29 -10 -102 -2 -119 12 -112 13 -135 -4z"/>
<path d="M3506 2712 c-13 -16 -26 -19 -52 -15 -34 6 -34 5 -34 -31 0 -42 -2
-42 100 -2 44 17 56 26 58 46 l4 25 -24 -22 c-13 -13 -31 -23 -39 -23 -12 0
-12 2 0 9 7 5 12 14 9 21 -2 7 -10 5 -22 -8z"/>
<path d="M1108 2703 c7 -3 16 -2 19 1 4 3 -2 6 -13 5 -11 0 -14 -3 -6 -6z"/>
<path d="M1435 2680 c3 -5 10 -10 16 -10 5 0 9 5 9 10 0 6 -7 10 -16 10 -8 0
-12 -4 -9 -10z"/>
<path d="M1471 2670 l-23 -20 38 0 c44 0 70 13 60 29 -11 17 -48 12 -75 -9z"/>
<path d="M1590 2650 c0 -33 4 -40 19 -40 10 0 21 -9 24 -20 5 -20 6 -20 66 2
65 23 70 31 46 65 -13 19 -19 20 -45 11 -17 -5 -27 -14 -24 -19 11 -19 -12 -8
-35 16 -35 37 -51 32 -51 -15z m37 -15 c0 -8 -4 -12 -9 -9 -5 3 -6 10 -3 15 9
13 12 11 12 -6z"/>
<path d="M1015 2619 c-4 -12 -3 -25 2 -29 11 -11 153 -39 153 -31 0 9 -123 81
-138 81 -6 0 -14 -9 -17 -21z"/>
<path d="M1315 2550 c18 -19 65 -28 65 -12 0 8 -57 32 -75 32 -4 0 0 -9 10
-20z"/>
<path d="M3256 2551 c-3 -5 4 -11 16 -14 29 -8 32 -4 8 11 -10 6 -21 8 -24 3z"/>
<path d="M882 2538 c-36 -36 14 -52 58 -18 24 19 24 20 3 20 -12 0 -27 2 -35
5 -7 3 -19 0 -26 -7z"/>
<path d="M3460 2524 c0 -16 7 -40 16 -53 10 -13 13 -26 7 -30 -6 -4 -5 -29 3
-66 l11 -60 2 101 c1 89 -1 103 -19 119 -20 18 -20 17 -20 -11z"/>
<path d="M1551 2511 c-17 -11 -7 -41 14 -41 9 0 15 9 15 25 0 27 -6 30 -29 16z"/>
<path d="M1816 2495 c-4 -14 -4 -30 -1 -36 11 -16 84 -49 90 -40 5 9 -63 99
-76 100 -4 1 -10 -10 -13 -24z"/>
<path d="M3278 2502 c-27 -9 -48 -20 -48 -24 0 -41 1 -48 9 -43 6 3 15 -5 22
-17 12 -22 11 -22 -6 -8 -17 14 -18 13 -12 -10 4 -14 7 -37 7 -51 0 -21 4 -25
23 -23 12 1 26 3 30 3 5 1 5 7 1 14 -6 9 -5 9 7 0 16 -13 61 -14 53 -2 -2 4 1
9 6 11 18 6 -1 88 -26 113 -21 21 -21 24 -6 39 21 21 4 21 -60 -2z"/>
<path d="M3852 2426 c-23 -52 -42 -98 -42 -104 0 -5 11 -14 24 -20 20 -9 27
-7 51 18 l27 28 61 -39 c68 -44 70 -45 87 -24 18 21 35 19 19 -2 -11 -15 -11
-16 1 -6 23 21 33 101 15 119 -17 18 -183 124 -193 124 -4 0 -27 -42 -50 -94z"/>
<path d="M1065 2481 c-6 -11 9 -23 19 -14 9 9 7 23 -3 23 -6 0 -12 -4 -16 -9z"/>
<path d="M2101 2457 c-7 -19 -9 -41 -6 -50 4 -8 2 -24 -3 -34 -6 -10 -12 -34
-13 -53 -5 -49 20 -51 87 -5 40 28 53 42 49 55 -4 12 1 19 17 24 l23 6 -25 20
c-14 10 -46 31 -72 45 l-46 25 -11 -33z"/>
<path d="M3381 2471 c-7 -5 -11 -13 -7 -19 8 -14 46 -3 46 14 0 16 -18 18 -39
5z"/>
<path d="M3565 2430 c-4 -13 0 -31 11 -47 10 -16 13 -28 7 -30 -6 -2 -17 -9
-26 -16 -15 -11 -15 -18 -2 -81 15 -72 47 -121 59 -90 3 9 9 40 12 70 4 30 10
57 14 59 4 2 22 -11 40 -30 19 -19 42 -35 51 -35 21 0 31 50 21 99 -6 29 -17
39 -87 77 -44 24 -83 44 -87 44 -4 0 -10 -9 -13 -20z"/>
<path d="M517 2397 l-38 -33 56 -38 c30 -22 58 -37 60 -34 3 2 7 18 10 34 6
29 -21 95 -41 101 -5 1 -26 -12 -47 -30z"/>
<path d="M1396 2415 c-3 -9 0 -15 9 -15 8 0 15 7 15 15 0 8 -4 15 -9 15 -5 0
-11 -7 -15 -15z"/>
<path d="M1815 2398 c-4 -10 -13 -37 -20 -60 l-12 -42 41 -40 c37 -35 103 -66
143 -66 9 0 -2 19 -27 48 -57 64 -68 69 -80 36 -9 -21 -13 -25 -23 -15 -9 9
-7 16 12 31 14 10 30 16 36 14 15 -6 39 22 27 30 -5 3 -21 -3 -35 -14 -34 -27
-37 -26 -38 13 -1 17 -4 43 -9 57 -6 21 -8 23 -15 8z"/>
<path d="M3137 2363 c-32 -19 -56 -37 -54 -40 3 -2 32 -1 65 3 64 7 83 26 58
58 -9 13 -19 10 -69 -21z"/>
<path d="M4126 2368 c-10 -38 -7 -42 14 -23 23 21 26 45 6 45 -7 0 -16 -10
-20 -22z"/>
<path d="M2270 2345 c0 -27 29 -73 50 -80 12 -4 29 -1 38 6 35 27 72 63 72 71
0 12 -112 8 -128 -5 -9 -7 -11 -6 -6 7 4 11 1 16 -10 16 -9 0 -16 -7 -16 -15z"/>
<path d="M1522 2338 c-9 -9 -9 -15 1 -27 6 -8 7 -12 2 -9 -12 7 -38 -45 -33
-65 2 -10 11 -11 36 -5 22 6 32 14 29 23 -3 7 3 15 14 18 19 5 19 6 2 41 -17
38 -31 44 -51 24z"/>
<path d="M482 2311 c-9 -5 -11 -17 -6 -35 l7 -28 25 25 c33 34 13 63 -26 38z"/>
<path d="M813 2301 c-10 -15 -10 -21 0 -24 12 -4 87 29 87 38 0 3 -17 5 -38 5
-26 0 -41 -6 -49 -19z"/>
<path d="M1996 2276 c43 -48 57 -53 94 -30 24 14 24 15 3 11 -15 -3 -23 0 -23
9 0 15 -27 32 -59 37 -11 2 -24 6 -27 10 -4 4 -12 7 -17 7 -5 0 8 -20 29 -44z"/>
<path d="M2192 2288 l-22 -33 38 -12 c59 -18 72 -16 72 11 0 14 -5 28 -10 31
-6 4 -8 10 -6 14 3 4 0 8 -7 8 -7 0 -19 4 -28 7 -12 5 -23 -3 -37 -26z"/>
<path d="M3400 2290 c0 -16 -4 -30 -10 -30 -5 0 -10 8 -10 19 0 10 -9 21 -20
24 -20 5 -20 4 2 -34 12 -21 24 -39 27 -39 3 0 17 17 29 36 19 29 21 38 10 45
-22 15 -28 10 -28 -21z"/>
<path d="M3023 2292 c-8 -5 17 -41 79 -110 77 -86 96 -102 117 -100 21 3 27
10 32 43 4 22 3 44 -2 50 -5 5 -9 19 -9 32 0 13 -4 23 -10 23 -5 0 -10 7 -10
16 0 8 -4 12 -10 9 -5 -3 -10 -3 -10 2 0 4 -14 16 -31 26 -31 17 -123 23 -146
9z"/>
<path d="M874 2275 c-17 -13 -17 -14 -2 -15 9 0 20 5 23 11 11 17 0 20 -21 4z"/>
<path d="M3302 2270 c0 -14 2 -19 5 -12 2 6 2 18 0 25 -3 6 -5 1 -5 -13z"/>
<path d="M3875 2260 c3 -6 0 -10 -7 -10 -9 0 -9 -3 2 -10 13 -9 13 -10 0 -10
-13 0 -13 -1 0 -10 13 -8 13 -11 -3 -22 -20 -15 -24 -40 -14 -78 5 -18 28 -37
81 -67 42 -24 77 -43 79 -43 2 0 23 26 46 59 41 56 44 58 71 48 25 -10 31 -8
48 13 l20 25 -56 38 c-53 35 -61 37 -108 31 -37 -4 -60 -2 -83 10 -49 26 -83
37 -76 26z"/>
<path d="M1680 2250 c0 -14 39 -32 56 -26 8 3 14 12 14 21 0 11 -10 15 -35 15
-19 0 -35 -4 -35 -10z"/>
<path d="M3280 2224 c0 -14 7 -32 15 -41 9 -8 13 -18 10 -21 -3 -4 -10 0 -15
8 -13 20 -11 2 4 -39 l12 -34 18 28 c14 22 20 25 27 14 6 -10 9 -5 9 17 0 16
6 36 13 43 10 11 9 12 -1 6 -7 -4 -21 -1 -30 7 -9 7 -27 19 -39 26 -21 11 -23
10 -23 -14z"/>
<path d="M745 2179 c-12 -18 4 -59 24 -59 17 0 59 36 50 43 -6 5 -59 27 -64
27 -2 0 -7 -5 -10 -11z"/>
<path d="M2353 2124 c-31 -24 -193 -207 -193 -218 0 -3 10 -14 21 -25 17 -16
26 -18 47 -10 18 7 28 7 30 0 6 -18 30 -12 46 11 11 16 16 18 16 7 0 -27 -23
-39 -76 -39 -38 0 -72 -9 -130 -36 -73 -34 -202 -120 -204 -136 0 -4 9 -10 20
-13 11 -3 20 -13 20 -21 0 -8 5 -12 10 -9 7 4 7 13 0 26 -12 21 -1 26 17 8 6
-6 103 -22 214 -35 111 -13 204 -25 205 -27 1 -1 -36 -94 -82 -206 -46 -112
-82 -206 -81 -208 2 -2 41 88 87 199 46 112 86 206 89 209 3 4 58 1 121 -5 63
-7 116 -11 118 -10 2 1 -7 22 -19 47 -19 38 -28 47 -53 49 -30 3 -31 4 -28 53
1 33 -4 61 -15 83 l-18 32 -23 -42 c-12 -24 -21 -36 -18 -28 3 8 10 32 17 53
12 35 10 43 -11 83 -14 24 -28 44 -33 44 -4 0 -22 -7 -38 -16 -17 -8 -33 -14
-35 -12 -2 2 3 28 11 58 21 78 18 82 -15 20 -36 -68 -37 -59 -5 49 14 47 24
86 22 87 -1 2 -17 -8 -34 -22z m-52 -424 c7 11 8 5 3 -20 -3 -19 -8 -36 -9
-38 -1 -2 -23 7 -48 19 -39 19 -44 25 -36 40 9 18 11 18 45 2 31 -15 36 -15
45 -3z m-301 -16 c0 -8 -5 -14 -11 -14 -5 0 -7 5 -4 10 3 6 1 10 -4 10 -6 0
-11 4 -11 10 0 5 7 7 15 4 8 -4 15 -12 15 -20z"/>
<path d="M3373 2135 c-9 -25 4 -29 17 -6 7 15 7 21 0 21 -6 0 -13 -7 -17 -15z"/>
<path d="M3440 2133 c0 -5 9 -19 20 -33 26 -33 25 -40 -5 -40 -21 0 -25 5 -25
29 0 17 -5 33 -11 37 -18 11 1 -58 22 -81 18 -19 19 -19 48 3 16 11 41 24 55
28 33 8 40 19 26 44 -9 17 -21 20 -70 20 -33 0 -60 -3 -60 -7z"/>
<path d="M1314 2095 c21 -16 32 -13 21 4 -3 6 -14 11 -23 11 -15 -1 -15 -2 2
-15z"/>
<path d="M3322 2097 c-9 -11 -10 -17 -2 -22 15 -9 23 -1 18 21 -3 15 -4 16
-16 1z"/>
<path d="M3620 2071 c8 -16 7 -28 -5 -50 -21 -41 -19 -44 15 -26 25 13 28 18
20 39 -5 13 -6 26 -4 29 3 3 -4 11 -16 17 -20 11 -21 10 -10 -9z"/>
<path d="M4412 2076 c1 -10 8 -17 13 -17 15 1 12 24 -3 29 -9 3 -13 -2 -10
-12z"/>
<path d="M4099 2035 c-33 -34 -49 -44 -66 -40 -16 4 -28 -3 -48 -29 -28 -37
-25 -66 9 -66 11 0 31 -3 44 -6 22 -6 22 -7 6 -26 -13 -14 -25 -17 -46 -13
-29 7 -34 0 -19 -24 5 -7 13 -11 19 -7 19 12 59 -12 72 -43 10 -24 17 -30 31
-26 16 6 19 1 19 -34 0 -22 4 -42 8 -45 9 -6 26 23 37 62 4 12 11 22 16 22 5
0 29 41 54 92 33 69 41 95 33 105 -13 16 -82 17 -111 1 -20 -11 -21 -11 -3
-18 17 -6 16 -9 -14 -30 l-32 -23 7 23 c5 17 4 21 -6 15 -8 -5 -3 4 10 18 14
15 30 27 37 27 21 0 25 16 12 47 -6 15 -11 31 -10 36 1 4 -3 7 -9 7 -5 0 -7 5
-4 10 12 20 -2 9 -46 -35z"/>
<path d="M837 2047 c-3 -9 1 -18 9 -21 16 -6 18 2 5 22 -7 11 -9 11 -14 -1z"/>
<path d="M1834 2041 c-43 -26 -46 -40 -14 -81 15 -19 25 -40 23 -47 -2 -7 12
-17 35 -24 45 -13 77 -2 87 31 3 11 12 20 20 20 7 0 23 8 35 18 20 17 21 21 9
43 -7 13 -12 27 -11 31 1 4 -8 10 -19 13 -15 5 -29 -1 -48 -19 l-27 -26 -22
30 c-27 35 -28 36 -68 11z"/>
<path d="M3230 2056 c0 -2 7 -6 15 -10 8 -3 15 -1 15 4 0 6 -7 10 -15 10 -8 0
-15 -2 -15 -4z"/>
<path d="M4470 2046 c0 -18 19 -32 55 -40 l30 -6 -35 30 c-38 33 -50 37 -50
16z"/>
<path d="M2153 2034 c-3 -8 2 -23 11 -32 15 -15 16 -14 16 16 0 33 -16 43 -27
16z"/>
<path d="M3280 2040 c0 -5 5 -10 10 -10 6 0 10 5 10 10 0 6 -4 10 -10 10 -5 0
-10 -4 -10 -10z"/>
<path d="M1718 2019 c-43 -22 -46 -29 -19 -53 19 -17 20 -16 41 24 12 23 20
43 18 45 -2 2 -20 -6 -40 -16z"/>
<path d="M3357 2033 c-14 -13 -6 -31 15 -36 29 -8 32 -3 18 22 -11 22 -22 26
-33 14z"/>
<path d="M4410 2030 c0 -7 24 -20 36 -20 13 0 1 19 -16 23 -11 3 -20 2 -20 -3z"/>
<path d="M1540 2018 c0 -7 -23 -28 -51 -47 -46 -32 -59 -56 -30 -56 7 0 35 16
62 35 34 24 48 41 47 54 -3 22 -28 35 -28 14z"/>
<path d="M4327 1994 c-18 -21 -26 -41 -23 -51 5 -13 9 -14 18 -5 17 17 28 15
28 -5 1 -14 4 -12 15 7 19 33 18 41 -1 33 -14 -5 -16 -1 -12 25 2 18 4 32 4
32 -1 0 -14 -16 -29 -36z"/>
<path d="M1000 1989 c-18 -42 -3 -52 44 -31 l40 18 -29 22 c-36 29 -40 28 -55
-9z"/>
<path d="M3280 1990 c15 -28 30 -34 30 -12 0 11 -9 22 -20 25 -17 4 -18 2 -10
-13z"/>
<path d="M3460 1981 c0 -29 21 -47 50 -42 25 5 25 10 -5 41 -36 37 -45 38 -45
1z"/>
<path d="M4474 1923 c7 -55 10 -59 36 -47 19 9 19 9 0 52 -26 58 -45 56 -36
-5z"/>
<path d="M4394 1952 c-21 -15 -44 -63 -44 -92 0 -35 1 -35 63 -14 40 14 47 20
47 43 0 33 -45 77 -66 63z"/>
<path d="M1627 1944 c-9 -9 -8 -63 2 -87 6 -15 9 -13 23 17 16 33 16 36 0 56
-10 12 -21 18 -25 14z"/>
<path d="M2090 1945 c0 -3 -9 -37 -19 -75 -11 -39 -18 -70 -17 -70 2 0 29 34
60 75 l56 75 -40 0 c-22 0 -40 -2 -40 -5z"/>
<path d="M3340 1931 c0 -23 108 -144 121 -136 9 6 31 -29 24 -37 -3 -2 9 -17
25 -33 17 -16 30 -26 30 -22 0 14 -34 77 -42 77 -4 0 -8 9 -8 21 0 26 -19 61
-29 54 -5 -2 -11 13 -15 35 -7 44 -27 60 -75 60 -24 0 -31 -4 -31 -19z"/>
<path d="M2003 1923 c-7 -2 -13 -9 -13 -14 0 -15 53 -6 58 9 4 12 -21 15 -45
5z"/>
<path d="M1750 1892 c-47 -55 -58 -92 -27 -92 30 0 117 45 123 64 13 40 -66
64 -96 28z"/>
<path d="M580 1897 c0 -2 10 -17 23 -34 19 -27 25 -29 40 -18 23 17 22 22 -13
40 -27 14 -50 19 -50 12z"/>
<path d="M1491 1879 c-18 -17 -20 -23 -9 -30 18 -12 31 -11 52 4 16 12 16 14
-2 30 -17 16 -20 16 -41 -4z"/>
<path d="M707 1883 c-11 -11 -8 -32 8 -57 14 -22 19 -23 51 -13 l35 11 -33 33
c-31 32 -48 40 -61 26z"/>
<path d="M3616 1881 c-3 -4 6 -6 19 -3 14 2 25 6 25 8 0 8 -39 4 -44 -5z"/>
<path d="M825 1870 c3 -5 8 -10 11 -10 2 0 4 5 4 10 0 6 -5 10 -11 10 -5 0 -7
-4 -4 -10z"/>
<path d="M1956 1832 c-9 -14 14 -62 30 -62 6 0 14 6 17 14 7 17 -38 62 -47 48z"/>
<path d="M4500 1803 c1 -27 1 -27 15 -9 14 19 12 36 -6 36 -5 0 -9 -12 -9 -27z"/>
<path d="M1904 1797 c-8 -21 -3 -29 13 -19 8 5 9 13 3 22 -7 12 -10 12 -16 -3z"/>
<path d="M3967 1802 c1 -2 -13 -17 -30 -33 l-32 -30 42 3 c37 3 43 1 48 -19 5
-22 7 -22 30 -7 24 15 24 33 2 62 -8 10 -12 10 -18 1 -6 -10 -12 -8 -26 7 -10
11 -17 18 -16 16z"/>
<path d="M4351 1781 c-6 -4 -15 -44 -19 -89 l-8 -82 40 0 c39 0 43 3 74 56 24
42 30 60 22 72 -5 10 -10 13 -10 8 0 -4 -8 1 -17 13 -19 22 -62 34 -82 22z"/>
<path d="M3446 1772 c-4 -7 -2 -12 5 -12 10 0 10 -3 1 -12 -13 -13 -17 -68 -4
-68 4 0 12 16 18 35 8 26 8 39 -1 52 -8 11 -14 13 -19 5z"/>
<path d="M3673 1732 c42 -43 47 -52 38 -70 -18 -33 -13 -46 8 -21 l20 24 43
-42 43 -42 35 29 c41 34 50 37 50 12 0 -28 11 -34 32 -15 24 22 23 42 -4 53
-36 15 -75 52 -60 57 28 10 9 22 -45 28 -32 3 -71 10 -88 14 -16 5 -50 12 -75
16 l-45 7 48 -50z"/>
<path d="M4543 1742 c-17 -11 -26 -57 -19 -97 7 -33 9 -35 46 -35 21 0 42 4
45 10 7 12 -36 122 -50 127 -5 1 -15 -1 -22 -5z"/>
<path d="M3967 1709 c4 -13 8 -18 11 -10 2 7 -1 18 -6 23 -8 8 -9 4 -5 -13z"/>
<path d="M1477 1713 c-13 -13 -7 -32 8 -27 8 4 15 12 15 20 0 15 -12 19 -23 7z"/>
<path d="M4173 1707 c-8 -14 -9 -18 -12 -67 -2 -33 -2 -34 -16 -16 -15 20 -15
20 -15 0 0 -18 35 -84 44 -84 3 0 0 13 -5 30 -9 25 -7 37 15 74 14 25 26 49
26 54 0 16 -29 22 -37 9z"/>
<path d="M506 1698 c-13 -43 -12 -58 5 -74 18 -16 18 -19 4 -41 -13 -20 -14
-23 -1 -23 8 0 19 7 24 16 8 15 11 15 36 -1 15 -10 29 -15 32 -13 6 7 -78 148
-89 148 -4 0 -9 -6 -11 -12z"/>
<path d="M1577 1703 c-14 -13 -6 -23 17 -23 30 0 42 15 20 24 -20 8 -29 8 -37
-1z"/>
<path d="M1801 1694 c0 -11 3 -14 6 -6 3 7 2 16 -1 19 -3 4 -6 -2 -5 -13z"/>
<path d="M4452 1655 c-27 -45 -27 -45 3 -45 28 0 43 37 27 65 -7 14 -12 11
-30 -20z"/>
<path d="M4096 1665 c10 -8 23 -15 28 -15 6 0 1 7 -10 15 -10 8 -23 15 -28 15
-6 0 -1 -7 10 -15z"/>
<path d="M3115 1583 c42 -50 84 -98 93 -105 31 -24 -26 46 -99 122 l-71 75 77
-92z"/>
<path d="M3444 1656 c-3 -9 -12 -16 -20 -16 -8 0 -14 -4 -14 -10 0 -5 6 -7 13
-4 7 2 31 -11 54 -31 l41 -35 4 33 c3 17 7 39 9 47 2 8 -4 15 -16 16 -11 2
-30 6 -42 10 -16 4 -25 2 -29 -10z"/>
<path d="M872 1588 l-53 -51 -33 32 c-17 17 -36 31 -40 31 -9 0 -4 -145 5
-154 3 -3 34 -2 69 2 l64 7 -33 38 c-18 20 -29 37 -25 37 5 0 31 25 57 55 27
30 47 55 45 55 -2 0 -27 -23 -56 -52z m-92 -107 c0 -6 -4 -13 -10 -16 -5 -3
-10 1 -10 9 0 9 5 16 10 16 6 0 10 -4 10 -9z"/>
<path d="M1450 1607 c0 -10 14 -20 38 -26 51 -15 72 -14 72 3 0 20 -10 25 -64
32 -38 6 -46 4 -46 -9z"/>
<path d="M2057 1614 c-7 -8 62 -63 78 -64 6 0 16 10 24 22 12 19 11 23 -5 35
-18 13 -86 18 -97 7z"/>
<path d="M1716 1568 c-11 -30 -13 -44 -5 -49 15 -9 110 -21 116 -15 12 12 -12
49 -51 76 l-43 29 -17 -41z m51 -40 c-3 -7 -5 -2 -5 12 0 14 2 19 5 13 2 -7 2
-19 0 -25z"/>
<path d="M917 1593 c-19 -18 -2 -113 20 -113 20 0 73 58 73 80 0 25 -75 51
-93 33z"/>
<path d="M4618 1579 c-47 -24 -48 -41 -3 -62 39 -19 36 -21 54 46 11 44 4 46
-51 16z"/>
<path d="M1811 1569 c8 -17 39 -39 53 -39 3 0 3 7 0 15 -5 11 -2 13 10 9 9 -3
16 -2 16 4 0 9 -36 23 -72 27 -13 1 -15 -2 -7 -16z"/>
<path d="M3597 1584 c-3 -3 -3 -13 0 -22 4 -9 2 -13 -4 -9 -6 4 -16 0 -24 -9
-10 -12 -9 -18 4 -31 15 -15 17 -15 24 5 7 18 16 7 67 -78 33 -55 63 -100 67
-100 28 0 -16 104 -74 175 -4 6 -18 25 -31 42 -13 18 -26 30 -29 27z"/>
<path d="M4406 1581 c-3 -5 2 -11 12 -14 9 -2 25 -8 34 -12 13 -5 15 -2 11 14
-5 21 -46 30 -57 12z"/>
<path d="M3391 1549 c0 -19 5 -43 10 -54 6 -13 7 -4 3 30 -8 60 -14 72 -13 24z"/>
<path d="M4100 1571 c0 -6 5 -13 10 -16 6 -3 10 1 10 9 0 9 -4 16 -10 16 -5 0
-10 -4 -10 -9z"/>
<path d="M1927 1564 c-13 -13 -7 -23 13 -21 11 1 19 6 17 11 -4 13 -21 18 -30
10z"/>
<path d="M3757 1563 c-7 -11 10 -40 18 -31 4 4 3 14 -3 24 -5 9 -12 12 -15 7z"/>
<path d="M4492 1554 c1 -9 9 -19 16 -22 9 -3 13 2 10 14 -1 9 -9 19 -16 22 -9
3 -13 -2 -10 -14z"/>
<path d="M1313 1543 c9 -9 19 -14 23 -11 10 10 -6 28 -24 28 -15 0 -15 -1 1
-17z"/>
<path d="M3470 1538 c-12 -22 -12 -22 6 -6 10 10 15 20 12 24 -4 3 -12 -5 -18
-18z"/>
<path d="M3890 1540 c0 -5 6 -10 14 -10 8 0 18 5 21 10 3 6 -3 10 -14 10 -12
0 -21 -4 -21 -10z"/>
<path d="M4110 1530 c-13 -9 -13 -12 3 -24 9 -7 17 -18 17 -25 0 -6 16 -11 38
-10 20 0 30 3 22 6 -8 3 -26 19 -40 34 -19 22 -29 27 -40 19z"/>
<path d="M4310 1520 c0 -23 4 -24 31 -10 27 15 24 30 -6 30 -18 0 -25 -5 -25
-20z"/>
<path d="M3787 1523 c-11 -10 -8 -25 3 -18 6 3 7 -1 4 -9 -7 -18 -20 -21 -27
-6 -3 6 -4 5 -3 -2 3 -15 43 -13 94 3 27 9 31 13 21 25 -12 14 -80 20 -92 7z"/>
<path d="M4558 1501 c-5 -18 -8 -37 -8 -42 0 -4 25 -11 56 -14 47 -6 57 -5 69
11 11 16 11 20 -2 28 -10 5 -18 4 -23 -3 -3 -7 -23 -14 -43 -18 -35 -5 -36 -5
-39 33 l-3 39 -7 -34z"/>
<path d="M4221 1498 c-4 -13 -11 -35 -14 -50 -6 -23 -4 -25 13 -21 11 3 20 12
20 21 0 8 8 24 17 34 15 17 15 20 3 28 -23 14 -30 12 -39 -12z"/>
<path d="M4467 1489 c-15 -11 -24 -26 -20 -32 4 -6 0 -8 -9 -4 -9 3 -26 -4
-38 -15 l-23 -22 27 -23 c15 -13 31 -23 35 -23 4 0 15 16 24 35 14 30 20 35
42 29 29 -7 33 8 13 51 -13 30 -15 30 -51 4z"/>
<path d="M1865 1464 c-19 -15 -19 -15 9 -12 16 2 31 9 34 16 5 17 -19 15 -43
-4z"/>
<path d="M4017 1474 c-16 -16 -7 -44 14 -44 15 0 20 5 17 22 -3 22 -19 33 -31
22z"/>
<path d="M900 1468 c0 -4 45 -128 55 -153 44 -108 63 -144 69 -138 4 4 4 0 0
-10 -4 -13 -1 -17 15 -17 23 0 29 16 9 23 -7 2 -1 8 13 12 26 6 42 28 53 71 4
14 -2 28 -19 44 -13 12 -22 27 -19 32 3 5 2 7 -3 6 -4 -2 -40 27 -78 64 -39
37 -76 68 -82 68 -7 0 -13 -1 -13 -2z"/>
<path d="M4616 1395 c-11 -8 -31 -15 -45 -15 l-26 0 30 -20 c41 -27 50 -25 62
15 12 38 8 42 -21 20z"/>
<path d="M4316 1385 c-10 -8 -15 -19 -11 -25 5 -8 12 -4 22 10 19 26 14 33
-11 15z"/>
<path d="M1980 1381 c0 -5 7 -12 16 -15 22 -9 24 -8 24 9 0 8 -9 15 -20 15
-11 0 -20 -4 -20 -9z"/>
<path d="M4060 1338 c1 -13 1 -27 0 -33 -2 -5 -4 -14 -5 -20 -1 -5 -7 -23 -14
-39 -10 -24 -9 -30 6 -42 11 -8 22 -9 28 -3 5 5 19 9 32 9 24 0 31 14 13 25
-7 4 -6 13 1 26 12 23 5 54 -10 45 -5 -4 -12 7 -16 24 -8 35 -37 42 -35 8z"/>
<path d="M1392 1317 c-32 -33 -38 -52 -24 -74 6 -9 18 -1 43 27 30 33 34 42
24 60 -11 20 -12 19 -43 -13z"/>
<path d="M4476 1338 c-3 -7 -7 -29 -10 -48 -4 -25 -3 -31 4 -20 8 12 10 9 10
-13 0 -17 4 -26 11 -22 6 4 9 22 7 40 -1 19 1 37 4 40 9 9 -2 35 -13 35 -5 0
-11 -6 -13 -12z"/>
<path d="M4620 1324 c-14 -3 -44 -7 -67 -10 -24 -3 -43 -11 -43 -17 0 -7 24
-39 54 -72 l55 -60 23 25 c32 35 49 86 38 116 -5 13 -15 23 -22 23 -7 -1 -24
-3 -38 -5z"/>
<path d="M3755 1301 c-16 -19 -16 -22 7 -63 27 -49 58 -63 58 -26 0 22 -35
108 -43 108 -2 0 -12 -9 -22 -19z"/>
<path d="M1477 1287 c-3 -7 1 -31 9 -52 17 -49 17 -45 -1 -45 -8 0 -15 -4 -15
-10 0 -13 13 -13 27 1 8 8 17 6 34 -10 23 -21 59 -29 59 -12 0 4 -15 13 -32
19 -30 9 -31 11 -12 17 15 5 21 14 20 31 0 13 -5 24 -9 24 -5 0 -5 5 -2 10 3
6 -2 10 -12 10 -14 0 -15 2 -5 9 11 6 10 10 -3 15 -12 4 -18 0 -22 -14 -3 -11
-10 -20 -15 -20 -6 0 -8 9 -5 20 6 22 -8 28 -16 7z"/>
<path d="M4392 1280 l-23 -19 20 -46 c27 -60 52 -61 50 -2 -2 52 -9 87 -18 87
-3 -1 -16 -9 -29 -20z"/>
<path d="M1720 1276 c0 -16 44 -76 56 -76 22 0 16 28 -11 55 -21 22 -45 33
-45 21z"/>
<path d="M3726 1262 c-4 -7 -5 -12 -2 -12 3 0 -4 -21 -15 -46 -18 -44 -19 -47
-2 -60 40 -29 73 -45 73 -35 0 6 7 11 15 11 8 0 15 -4 15 -10 0 -5 9 -10 21
-10 15 0 19 -5 17 -22 -2 -16 6 -27 30 -41 35 -21 59 -14 29 8 -10 7 -15 19
-11 29 4 10 1 16 -9 16 -9 0 -22 7 -30 15 -12 12 -13 21 -4 44 6 16 13 28 16
26 4 -2 7 10 8 26 2 25 -1 29 -24 29 -19 0 -24 -4 -20 -17 12 -45 12 -48 -8
-48 -11 0 -23 -4 -26 -8 -4 -5 -20 20 -36 54 -18 40 -32 59 -37 51z"/>
<path d="M4170 1245 c0 -9 5 -15 11 -13 6 2 11 8 11 13 0 5 -5 11 -11 13 -6 2
-11 -4 -11 -13z"/>
<path d="M1164 1232 c19 -22 19 -23 0 -36 -23 -18 -13 -32 13 -17 10 6 14 11
8 11 -5 0 -4 4 3 8 9 6 5 15 -15 33 -25 22 -26 22 -9 1z"/>
<path d="M4450 1230 c0 -5 5 -10 11 -10 5 0 7 5 4 10 -3 6 -8 10 -11 10 -2 0
-4 -4 -4 -10z"/>
<path d="M1364 1193 c-8 -12 -8 -25 -1 -40 9 -20 11 -20 53 -6 38 13 42 17 34
34 -6 10 -19 19 -30 19 -10 0 -24 2 -32 5 -7 3 -18 -3 -24 -12z"/>
<path d="M1595 1200 c-11 -17 6 -32 31 -27 18 3 24 0 24 -13 0 -12 11 -19 37
-23 20 -4 39 -5 41 -2 5 5 -104 75 -117 75 -5 0 -13 -4 -16 -10z"/>
<path d="M1746 1174 c-8 -21 13 -49 27 -35 10 10 0 51 -13 51 -4 0 -11 -7 -14
-16z"/>
<path d="M3902 1178 c-19 -19 -14 -45 9 -51 16 -4 18 -3 9 8 -9 11 -7 12 8 9
10 -3 24 2 32 11 12 14 12 18 -1 26 -20 12 -43 11 -57 -3z"/>
<path d="M4674 1144 c-43 -25 -80 -47 -82 -49 -2 -2 1 -19 7 -37 6 -18 12 -47
13 -64 1 -17 8 -31 15 -31 7 0 11 9 10 20 -1 14 15 30 62 59 l63 39 39 -26
c22 -14 39 -32 39 -40 0 -8 9 -15 21 -15 11 0 17 5 14 10 -3 6 -2 10 4 10 8 0
-13 117 -23 128 -2 1 -26 12 -53 22 l-50 19 -79 -45z"/>
<path d="M860 1170 c0 -5 4 -10 9 -10 5 0 12 -7 15 -16 5 -14 4 -15 -8 -5 -20
16 -106 4 -113 -16 -3 -9 -6 -29 -7 -47 -1 -17 -5 -34 -10 -38 -5 -3 -10 -26
-12 -51 -2 -40 1 -46 24 -57 45 -21 79 -28 92 -20 7 4 21 43 31 86 22 92 23
108 5 75 -11 -20 -14 -21 -19 -7 -4 10 1 24 13 36 11 11 20 15 20 9 0 -6 19
-9 47 -7 37 2 49 7 51 22 3 11 0 16 -7 11 -6 -3 -9 -11 -6 -16 10 -16 -3 -10
-59 26 -59 38 -66 40 -66 25z"/>
<path d="M1078 1143 c-32 -8 -19 -32 23 -43 23 -6 42 -10 44 -8 2 2 1 15 -2
31 -5 27 -20 32 -65 20z"/>
<path d="M1500 1129 c0 -9 -3 -31 -6 -48 -5 -24 -3 -31 9 -31 23 0 30 35 13
67 -10 18 -15 22 -16 12z"/>
<path d="M1557 1123 c-18 -18 2 -75 28 -80 6 -1 23 -5 38 -8 21 -6 27 -4 27 9
0 9 -4 16 -9 16 -5 0 -7 8 -5 18 7 25 -61 64 -79 45z"/>
<path d="M4230 1103 c0 -19 6 -33 15 -37 26 -9 30 23 6 47 l-21 21 0 -31z"/>
<path d="M1738 1093 c7 -3 16 -2 19 1 4 3 -2 6 -13 5 -11 0 -14 -3 -6 -6z"/>
<path d="M264 1071 c11 -11 23 -21 28 -21 14 0 -1 19 -25 31 -22 12 -22 12 -3
-10z"/>
<path d="M3740 1045 l0 -35 25 16 c24 16 25 18 9 35 -25 28 -34 23 -34 -16z"/>
<path d="M4358 1053 c-27 -9 -48 -19 -48 -22 0 -3 10 -18 23 -34 19 -23 26
-26 52 -19 25 7 31 14 33 41 2 19 0 37 -5 41 -4 5 -29 1 -55 -7z"/>
<path d="M1426 1031 c-4 -6 -1 -14 7 -17 13 -5 11 -14 -9 -58 -13 -30 -21 -61
-18 -70 14 -36 106 -62 117 -33 3 8 2 29 -2 48 -7 30 9 89 24 89 2 0 1 -25 -2
-55 l-6 -55 47 0 c54 0 54 1 25 96 l-21 68 -19 -23 c-12 -15 -19 -18 -19 -9 0
10 -13 14 -52 12 -29 -1 -56 3 -59 8 -4 7 -9 6 -13 -1z"/>
<path d="M4540 1018 l-25 -21 25 8 c31 9 33 11 29 24 -2 5 -15 0 -29 -11z"/>
<path d="M3650 1020 c20 -13 43 -13 35 0 -3 6 -16 10 -28 10 -18 0 -19 -2 -7
-10z"/>
<path d="M3773 1012 c-15 -9 -5 -54 11 -49 14 5 21 36 9 48 -4 4 -14 5 -20 1z"/>
<path d="M3815 1000 c-3 -5 1 -10 9 -10 9 0 16 5 16 10 0 6 -4 10 -9 10 -6 0
-13 -4 -16 -10z"/>
<path d="M3640 965 c0 -15 4 -24 10 -20 6 3 10 12 10 20 0 8 -4 17 -10 20 -6
4 -10 -5 -10 -20z"/>
<path d="M1188 938 c-57 -31 -78 -48 -83 -67 -4 -17 -2 -27 6 -30 7 -2 24 -15
37 -28 23 -23 26 -24 74 -12 27 7 53 20 58 29 8 15 -3 136 -12 145 -2 2 -38
-15 -80 -37z"/>
<path d="M4475 914 c14 -31 25 -58 25 -60 0 -2 6 -1 14 2 8 3 17 1 21 -5 6
-10 45 -16 45 -7 0 2 3 11 6 19 5 13 -56 65 -114 96 -22 12 -22 11 3 -45z"/>
<path d="M3900 930 c-9 -16 -8 -20 5 -20 8 0 15 -4 15 -8 0 -21 27 -43 43 -36
17 6 16 8 -4 30 -16 17 -18 24 -8 24 10 1 8 5 -5 15 -26 20 -33 19 -46 -5z"/>
<path d="M4131 936 c-12 -14 -5 -26 16 -26 15 0 18 26 4 34 -5 3 -14 0 -20 -8z"/>
<path d="M4380 920 c0 -24 -4 -30 -22 -30 -16 0 0 -14 51 -45 73 -43 91 -47
91 -21 0 15 -52 66 -68 66 -7 0 -12 8 -12 18 0 19 -18 42 -32 42 -4 0 -8 -13
-8 -30z"/>
<path d="M4688 933 c7 -3 16 -2 19 1 4 3 -2 6 -13 5 -11 0 -14 -3 -6 -6z"/>
<path d="M4638 888 c5 -68 5 -68 58 -52 26 8 49 16 51 18 3 3 -102 76 -110 76
-1 0 -1 -19 1 -42z"/>
<path d="M430 911 c0 -31 14 -41 56 -41 33 0 46 5 54 19 16 30 14 31 -50 31
-33 0 -60 -4 -60 -9z"/>
<path d="M3800 911 c-14 -4 -26 -15 -28 -25 -4 -16 0 -18 29 -12 39 7 54 20
45 35 -8 12 -10 12 -46 2z"/>
<path d="M4151 878 c-23 -37 -19 -42 47 -53 34 -5 42 -4 42 8 0 17 -47 77 -60
77 -4 0 -17 -15 -29 -32z"/>
<path d="M4858 850 c-19 -14 -28 -16 -36 -8 -7 7 -12 9 -12 5 0 -13 155 -108
158 -97 6 16 -17 76 -37 99 -23 26 -41 27 -73 1z"/>
<path d="M4544 815 c24 -18 14 -30 -26 -30 -27 0 -33 -6 -49 -42 -17 -40 -17
-42 2 -59 18 -17 19 -16 19 24 0 23 3 42 8 42 13 0 147 -129 135 -130 -7 0
-13 4 -13 9 0 5 -19 23 -42 40 l-42 31 -10 -22 c-12 -26 -35 -29 -60 -8 -15
12 -19 12 -27 -1 -5 -8 -9 -19 -9 -25 0 -7 -7 -15 -15 -18 -12 -4 -13 -10 -6
-25 6 -10 8 -21 4 -25 -3 -3 6 -15 21 -27 14 -11 24 -24 21 -29 -2 -4 13 -12
34 -18 l40 -10 -26 39 c-14 22 -24 41 -22 43 2 2 48 -14 103 -35 54 -22 100
-38 103 -36 5 5 -27 215 -38 243 -7 21 -93 84 -113 84 -6 0 -2 -7 8 -15z m-29
-175 c3 -5 -1 -10 -9 -10 -9 0 -16 5 -16 10 0 6 4 10 9 10 6 0 13 -4 16 -10z
m-49 -56 c-5 -12 -9 -12 -26 -2 -26 16 -25 21 3 33 24 11 34 -3 23 -31z"/>
<path d="M1410 752 c0 -5 7 -15 15 -22 8 -7 15 -8 15 -2 0 5 -7 15 -15 22 -8
7 -15 8 -15 2z"/>
<path d="M4718 753 c-16 -2 -28 -10 -28 -16 0 -7 -4 -6 -10 3 -5 8 -10 12 -10
9 0 -8 89 -248 100 -269 5 -10 55 -36 116 -59 121 -47 126 -46 139 37 8 55 -4
166 -16 137 -5 -12 -8 -14 -8 -5 -1 8 -8 33 -17 56 -12 31 -20 41 -32 37 -9
-4 -13 -2 -9 4 6 9 -24 29 -46 31 -4 1 -17 11 -28 24 -11 13 -18 17 -14 11 7
-14 -7 -18 -19 -6 -8 8 -81 12 -118 6z"/>
<path d="M4020 716 c0 -25 5 -35 20 -39 28 -7 33 7 15 43 -20 40 -35 38 -35
-4z"/>
<path d="M1270 720 c0 -15 7 -20 25 -20 14 0 48 -9 77 -20 29 -11 56 -20 60
-20 3 0 1 15 -4 34 -12 39 -28 46 -105 46 -46 0 -53 -3 -53 -20z"/>
<path d="M3875 730 c3 -5 8 -10 11 -10 2 0 4 5 4 10 0 6 -5 10 -11 10 -5 0 -7
-4 -4 -10z"/>
<path d="M1455 683 c8 -34 13 -39 48 -47 24 -6 27 -4 27 19 0 19 -8 28 -36 40
-47 20 -47 20 -39 -12z"/>
<path d="M555 584 c-7 -73 -7 -75 -26 -58 -16 14 -19 15 -19 2 0 -33 23 -128
31 -128 5 0 9 -14 9 -32 l0 -32 29 28 c18 18 28 36 26 48 -4 17 -2 18 11 7 12
-10 19 -9 34 7 15 15 21 40 26 114 l7 95 -35 13 c-19 6 -46 12 -60 12 -25 0
-26 -3 -33 -76z"/>
<path d="M1021 638 c-10 -17 -9 -22 6 -34 27 -20 54 -27 65 -16 6 6 4 14 -7
23 -9 8 -24 21 -34 30 -17 15 -19 15 -30 -3z"/>
<path d="M3830 645 c0 -16 16 -20 24 -6 3 5 -1 11 -9 15 -9 3 -15 0 -15 -9z"/>
<path d="M4241 633 c7 -12 15 -20 18 -17 3 2 -3 12 -13 22 -17 16 -18 16 -5
-5z"/>
<path d="M1420 620 c0 -5 5 -10 10 -10 6 0 10 5 10 10 0 6 -4 10 -10 10 -5 0
-10 -4 -10 -10z"/>
<path d="M1463 560 c6 -22 13 -37 15 -35 7 7 -8 75 -17 75 -5 0 -3 -18 2 -40z"/>
<path d="M4220 553 c-16 -6 -36 -35 -30 -43 10 -12 135 -48 140 -40 3 5 28 10
55 12 36 2 51 7 53 19 2 10 -5 19 -18 22 -11 3 -20 12 -20 21 0 13 -13 16 -82
15 -46 0 -90 -3 -98 -6z"/>
<path d="M1098 533 c7 -3 16 -2 19 1 4 3 -2 6 -13 5 -11 0 -14 -3 -6 -6z"/>
<path d="M3797 506 c-3 -8 -3 -17 0 -20 9 -9 34 15 27 25 -8 13 -21 11 -27 -5z"/>
<path d="M1219 498 c-1 -7 -1 -18 0 -25 1 -7 -15 -15 -36 -18 -21 -4 -60 -13
-87 -21 -57 -16 -76 -17 -76 -6 0 5 19 14 42 21 30 10 38 15 27 22 -8 5 -24 9
-36 9 -13 0 -23 4 -23 10 0 6 -9 6 -22 1 -21 -7 -24 -17 -29 -92 -4 -69 -2
-86 10 -96 13 -10 19 -8 31 9 39 57 44 60 83 53 l36 -7 -15 -30 c-25 -49 -12
-40 41 27 44 57 52 63 77 58 33 -6 32 -9 12 50 -15 45 -33 62 -35 35z"/>
<path d="M4058 498 c-9 -7 -18 -28 -20 -45 -4 -29 -1 -34 29 -44 18 -6 37 -8
42 -5 5 4 11 -6 13 -21 3 -26 6 -28 44 -26 23 1 60 7 83 13 51 13 54 38 12 81
-23 23 -38 29 -71 29 l-42 0 16 -25 c9 -14 12 -25 7 -25 -5 0 -12 7 -15 16 -4
9 -13 14 -21 10 -11 -4 -15 2 -15 24 0 25 -4 30 -23 30 -13 0 -30 -6 -39 -12z"/>
<path d="M4627 349 c69 -103 89 -127 94 -112 7 16 8 15 8 -4 1 -22 5 -23 81
-23 44 0 80 4 80 8 0 5 -40 51 -90 103 -86 91 -89 93 -90 64 -1 -27 -3 -25
-13 14 -12 44 -14 45 -72 63 -33 10 -66 18 -73 18 -6 0 27 -59 75 -131z"/>
<path d="M786 404 c-9 -37 -15 -68 -14 -70 2 -1 24 10 50 26 39 24 45 33 41
52 -6 24 -36 58 -51 58 -5 0 -17 -30 -26 -66z"/>
<path d="M3855 417 c-41 -23 -50 -45 -32 -81 7 -15 11 -16 22 -5 21 23 67 109
58 109 -4 0 -26 -11 -48 -23z"/>
<path d="M4790 425 c0 -11 -7 -12 -32 -4 -17 5 -33 7 -35 6 -1 -2 40 -50 93
-108 82 -89 99 -103 122 -100 15 1 29 5 31 7 11 10 10 112 -1 127 -19 25 -178
90 -178 72z"/>
<path d="M5064 404 c-17 -41 -17 -51 -1 -58 6 -3 4 -4 -7 -3 -15 2 -23 -12
-42 -65 l-23 -68 110 0 109 0 -15 36 c-8 20 -15 38 -15 40 0 3 -24 16 -52 29
-44 21 -38 25 10 8 17 -7 15 11 -9 66 -24 56 -46 61 -65 15z"/>
<path d="M655 410 c-3 -5 -2 -10 4 -10 5 0 13 5 16 10 3 6 2 10 -4 10 -5 0
-13 -4 -16 -10z"/>
<path d="M1415 360 c-4 -6 5 -10 19 -10 14 0 26 5 26 10 0 6 -9 10 -19 10 -11
0 -23 -4 -26 -10z"/>
<path d="M675 351 c-17 -4 -38 -12 -47 -17 -14 -8 -15 -11 -2 -29 12 -16 19
-18 43 -8 27 10 29 9 38 -21 6 -21 22 -38 48 -53 22 -13 43 -23 46 -23 3 0 6
16 7 35 1 30 -4 39 -38 61 -23 16 -39 34 -38 43 3 18 -15 22 -57 12z m45 -22
c0 -5 -4 -9 -10 -9 -5 0 -10 7 -10 16 0 8 5 12 10 9 6 -3 10 -10 10 -16z"/>
<path d="M452 333 c-10 -4 -10 -8 -1 -19 7 -9 10 -37 7 -73 -4 -57 -3 -60 21
-66 16 -4 29 -1 36 8 5 7 22 17 36 20 28 7 39 30 39 84 0 27 -5 34 -25 39 -14
3 -39 4 -55 0 -17 -3 -30 -1 -30 4 0 11 -7 11 -28 3z m98 -107 c0 -12 -5 -7
-19 24 -11 24 -11 24 3 6 9 -11 16 -24 16 -30z"/>
<path d="M4196 294 c-9 -24 -8 -26 14 -14 11 6 18 15 15 21 -9 14 -22 11 -29
-7z"/>
<path d="M840 290 c-12 -8 -11 -10 7 -10 12 0 25 5 28 10 8 13 -15 13 -35 0z"/>
<path d="M650 276 c0 -3 14 -14 30 -26 17 -12 30 -17 30 -11 0 6 -13 17 -30
26 -16 9 -30 13 -30 11z"/>
<path d="M1034 255 c1 -8 6 -18 11 -22 4 -4 5 -2 0 6 -6 10 -2 12 16 7 23 -7
23 -7 5 8 -25 20 -35 20 -32 1z"/>
<path d="M868 246 c-16 -12 -15 -15 10 -40 l28 -26 25 26 c24 25 24 26 5 40
-24 17 -46 17 -68 0z"/>
<path d="M668 214 c-15 -27 -17 -63 -3 -74 8 -7 15 -9 16 -4 0 5 2 17 4 28 4
22 -10 63 -17 50z"/>
<path d="M731 197 c13 -12 30 -23 38 -23 8 0 3 9 -13 23 -35 30 -57 30 -25 0z"/>
<path d="M1350 210 c0 -5 7 -7 15 -4 8 4 15 8 15 10 0 2 -7 4 -15 4 -8 0 -15
-4 -15 -10z"/>
<path d="M1421 191 c-8 -6 -9 -11 -3 -15 6 -3 14 -1 17 5 9 14 2 20 -14 10z"/>
<path d="M1205 170 c10 -11 20 -20 23 -20 3 0 -3 9 -13 20 -10 11 -20 20 -23
20 -3 0 3 -9 13 -20z"/>
<path d="M968 153 c7 -3 16 -2 19 1 4 3 -2 6 -13 5 -11 0 -14 -3 -6 -6z"/>
<path d="M1240 146 c0 -2 8 -10 18 -17 15 -13 16 -12 3 4 -13 16 -21 21 -21
13z"/>
<path d="M723 122 c-13 -2 -23 -8 -23 -13 0 -9 37 -3 49 7 8 7 -4 10 -26 6z"/>
</g>
</svg>
